<svg width="32" height="32" viewBox="0 0 32 32" fill="none" xmlns="http://www.w3.org/2000/svg">
<g clip-path="url(#clip0_13581_26429)">
<path d="M5.33325 9.33331H15.9999" stroke="#060606" stroke-width="1.5" stroke-linecap="round"/>
<path d="M5.33325 22.6667H7.99992" stroke="#060606" stroke-width="1.5" stroke-linecap="round"/>
<path d="M24 9.33331H26.6667" stroke="#060606" stroke-width="1.5" stroke-linecap="round"/>
<path d="M17.3333 22.6667H26.6666" stroke="#060606" stroke-width="1.5" stroke-linecap="round"/>
<path d="M20 13.3333C22.2091 13.3333 24 11.5425 24 9.33331C24 7.12417 22.2091 5.33331 20 5.33331C17.7909 5.33331 16 7.12417 16 9.33331C16 11.5425 17.7909 13.3333 20 13.3333Z" stroke="#060606" stroke-width="1.5" stroke-linecap="round"/>
<path d="M12 26.6667C14.2091 26.6667 16 24.8758 16 22.6667C16 20.4575 14.2091 18.6667 12 18.6667C9.79086 18.6667 8 20.4575 8 22.6667C8 24.8758 9.79086 26.6667 12 26.6667Z" stroke="#060606" stroke-width="1.5" stroke-linecap="round"/>
</g>
<defs>
<clipPath id="clip0_13581_26429">
<rect width="32" height="32" fill="white"/>
</clipPath>
</defs>
</svg>
