<svg width="32" height="32" viewBox="0 0 32 32" fill="none" xmlns="http://www.w3.org/2000/svg">
<g clip-path="url(#clip0_13581_26531)">
<path fill-rule="evenodd" clip-rule="evenodd" d="M5.33325 12C5.33325 10.5272 6.52716 9.33329 7.99992 9.33329H10.6666L11.2629 8.14072C11.7146 7.23729 12.6379 6.66663 13.6481 6.66663H18.3518C19.3619 6.66663 20.2853 7.23729 20.737 8.14072L21.3333 9.33329H23.9999C25.4727 9.33329 26.6666 10.5272 26.6666 12V22.6666C26.6666 24.1394 25.4727 25.3333 23.9999 25.3333H7.99992C6.52716 25.3333 5.33325 24.1394 5.33325 22.6666V12Z" stroke="#060606" stroke-width="1.5" stroke-linecap="round"/>
<path fill-rule="evenodd" clip-rule="evenodd" d="M20 17.3334C20 19.5426 18.2092 21.3334 16 21.3334C13.7908 21.3334 12 19.5426 12 17.3334C12 15.1242 13.7908 13.3334 16 13.3334C18.2092 13.3334 20 15.1242 20 17.3334Z" stroke="#060606" stroke-width="1.5" stroke-linecap="round"/>
</g>
<defs>
<clipPath id="clip0_13581_26531">
<rect width="32" height="32" fill="white"/>
</clipPath>
</defs>
</svg>
