<svg width="32" height="32" viewBox="0 0 32 32" fill="none" xmlns="http://www.w3.org/2000/svg">
<g clip-path="url(#clip0_13581_26533)">
<path d="M8 12V25.3333" stroke="#060606" stroke-width="1.5" stroke-linecap="round"/>
<path d="M16 6.66663V13.3333" stroke="#060606" stroke-width="1.5" stroke-linecap="round"/>
<path d="M16 18.6666V25.3333" stroke="#060606" stroke-width="1.5" stroke-linecap="round"/>
<path d="M24 6.66663V20" stroke="#060606" stroke-width="1.5" stroke-linecap="round"/>
<path d="M9.99992 6.66663H5.99992C5.63173 6.66663 5.33325 6.9651 5.33325 7.33329V9.99996C5.33325 10.3681 5.63173 10.6666 5.99992 10.6666H9.99992C10.3681 10.6666 10.6666 10.3681 10.6666 9.99996V7.33329C10.6666 6.9651 10.3681 6.66663 9.99992 6.66663Z" stroke="#060606" stroke-width="1.5" stroke-linecap="round"/>
<path d="M25.9999 21.3334H21.9999C21.6317 21.3334 21.3333 21.6319 21.3333 22V24.6667C21.3333 25.0349 21.6317 25.3334 21.9999 25.3334H25.9999C26.3681 25.3334 26.6666 25.0349 26.6666 24.6667V22C26.6666 21.6319 26.3681 21.3334 25.9999 21.3334Z" stroke="#060606" stroke-width="1.5" stroke-linecap="round"/>
<path d="M17.9999 14H13.9999C13.6317 14 13.3333 14.2985 13.3333 14.6667V17.3333C13.3333 17.7015 13.6317 18 13.9999 18H17.9999C18.3681 18 18.6666 17.7015 18.6666 17.3333V14.6667C18.6666 14.2985 18.3681 14 17.9999 14Z" stroke="#060606" stroke-width="1.5" stroke-linecap="round"/>
</g>
<defs>
<clipPath id="clip0_13581_26533">
<rect width="32" height="32" fill="white"/>
</clipPath>
</defs>
</svg>
