<svg width="32" height="32" viewBox="0 0 32 32" fill="none" xmlns="http://www.w3.org/2000/svg">
<g clip-path="url(#clip0_13581_26627)">
<path fill-rule="evenodd" clip-rule="evenodd" d="M5.33325 6.66667C5.33325 5.19391 6.52716 4 7.99992 4H20.2287C20.9359 4 21.6142 4.28095 22.1143 4.78105L25.8855 8.55228C26.3857 9.05239 26.6666 9.73065 26.6666 10.4379V25.3333C26.6666 26.8061 25.4727 28 23.9999 28H7.99992C6.52716 28 5.33325 26.8061 5.33325 25.3333V6.66667Z" stroke="#060606" stroke-width="1.5" stroke-linecap="round"/>
<path d="M20 4.33337V8.00004C20 9.4728 21.1939 10.6667 22.6667 10.6667H26.3333" stroke="#060606" stroke-width="1.5" stroke-linecap="round"/>
<path d="M12.7538 18.7466C12.7538 19.0773 12.6924 19.3573 12.5698 19.5866C12.4471 19.8106 12.2818 19.9919 12.0738 20.1306C11.8658 20.2693 11.6258 20.3706 11.3538 20.4346C11.0818 20.4986 10.7991 20.5306 10.5058 20.5306H9.82576V22.6666H8.45776V17.0026H10.5378C10.8471 17.0026 11.1351 17.0346 11.4018 17.0986C11.6738 17.1573 11.9084 17.2559 12.1058 17.3946C12.3084 17.5279 12.4658 17.7066 12.5778 17.9306C12.6951 18.1493 12.7538 18.4213 12.7538 18.7466ZM11.3858 18.7546C11.3858 18.6213 11.3591 18.5119 11.3058 18.4266C11.2524 18.3413 11.1804 18.2746 11.0898 18.2266C10.9991 18.1786 10.8951 18.1466 10.7778 18.1306C10.6658 18.1146 10.5484 18.1066 10.4258 18.1066H9.82576V19.4426H10.4018C10.5298 19.4426 10.6524 19.4319 10.7698 19.4106C10.8871 19.3893 10.9911 19.3519 11.0818 19.2986C11.1778 19.2453 11.2524 19.1759 11.3058 19.0906C11.3591 18.9999 11.3858 18.8879 11.3858 18.7546ZM17.175 22.6666L14.895 18.9626H14.871L14.903 22.6666H13.575V17.0026H15.135L17.407 20.6986H17.431L17.399 17.0026H18.727V22.6666H17.175ZM24.9273 22.3226C24.6499 22.4666 24.3246 22.5839 23.9513 22.6746C23.5833 22.7653 23.1806 22.8106 22.7433 22.8106C22.2899 22.8106 21.8713 22.7386 21.4873 22.5946C21.1086 22.4506 20.7806 22.2479 20.5033 21.9866C20.2313 21.7253 20.0179 21.4133 19.8633 21.0506C19.7086 20.6826 19.6313 20.2746 19.6313 19.8266C19.6313 19.3733 19.7086 18.9626 19.8633 18.5946C20.0233 18.2266 20.2419 17.9146 20.5193 17.6586C20.7966 17.3973 21.1219 17.1973 21.4953 17.0586C21.8686 16.9199 22.2713 16.8506 22.7033 16.8506C23.1513 16.8506 23.5673 16.9199 23.9513 17.0586C24.3353 17.1919 24.6473 17.3733 24.8873 17.6026L24.0233 18.5866C23.8899 18.4319 23.7139 18.3066 23.4953 18.2106C23.2766 18.1093 23.0286 18.0586 22.7513 18.0586C22.5113 18.0586 22.2899 18.1039 22.0873 18.1946C21.8846 18.2799 21.7086 18.4026 21.5593 18.5626C21.4099 18.7173 21.2926 18.9039 21.2073 19.1226C21.1273 19.3359 21.0873 19.5706 21.0873 19.8266C21.0873 20.0879 21.1246 20.3279 21.1993 20.5466C21.2739 20.7653 21.3833 20.9546 21.5273 21.1146C21.6766 21.2693 21.8579 21.3919 22.0713 21.4826C22.2899 21.5679 22.5379 21.6106 22.8153 21.6106C22.9753 21.6106 23.1273 21.5999 23.2713 21.5786C23.4153 21.5519 23.5486 21.5119 23.6713 21.4586V20.4266H22.5913V19.3226H24.9273V22.3226Z" fill="#060606"/>
</g>
<defs>
<clipPath id="clip0_13581_26627">
<rect width="32" height="32" fill="white"/>
</clipPath>
</defs>
</svg>
