<svg width="32" height="32" viewBox="0 0 32 32" fill="none" xmlns="http://www.w3.org/2000/svg">
<g clip-path="url(#clip0_13581_26543)">
<path fill-rule="evenodd" clip-rule="evenodd" d="M5.33325 6.66667C5.33325 5.19391 6.52716 4 7.99992 4H20.2287C20.9359 4 21.6142 4.28095 22.1143 4.78105L25.8855 8.55228C26.3857 9.05239 26.6666 9.73065 26.6666 10.4379V25.3333C26.6666 26.8061 25.4727 28 23.9999 28H7.99992C6.52716 28 5.33325 26.8061 5.33325 25.3333V6.66667Z" stroke="#060606" stroke-width="1.5" stroke-linecap="round"/>
<path d="M20 4.33337V8.00004C20 9.4728 21.1939 10.6667 22.6667 10.6667H26.3333" stroke="#060606" stroke-width="1.5" stroke-linecap="round"/>
<path d="M11.486 18.4746C11.3687 18.3253 11.214 18.2079 11.022 18.1226C10.8354 18.0319 10.654 17.9866 10.478 17.9866C10.3874 17.9866 10.294 17.9946 10.198 18.0106C10.1074 18.0266 10.0247 18.0586 9.95003 18.1066C9.87536 18.1493 9.81136 18.2079 9.75803 18.2826C9.71003 18.3519 9.68603 18.4426 9.68603 18.5546C9.68603 18.6506 9.7047 18.7306 9.74203 18.7946C9.7847 18.8586 9.84336 18.9146 9.91803 18.9626C9.99803 19.0106 10.0914 19.0559 10.198 19.0986C10.3047 19.1359 10.4247 19.1759 10.558 19.2186C10.75 19.2826 10.95 19.3546 11.158 19.4346C11.366 19.5093 11.5554 19.6106 11.726 19.7386C11.8967 19.8666 12.038 20.0266 12.15 20.2186C12.262 20.4053 12.318 20.6399 12.318 20.9226C12.318 21.2479 12.2567 21.5306 12.134 21.7706C12.0167 22.0053 11.8567 22.1999 11.654 22.3546C11.4514 22.5093 11.2194 22.6239 10.958 22.6986C10.6967 22.7733 10.4274 22.8106 10.15 22.8106C9.7447 22.8106 9.3527 22.7413 8.97403 22.6026C8.59536 22.4586 8.2807 22.2559 8.03003 21.9946L8.92603 21.0826C9.0647 21.2533 9.24603 21.3973 9.47003 21.5146C9.69936 21.6266 9.92603 21.6826 10.15 21.6826C10.2514 21.6826 10.35 21.6719 10.446 21.6506C10.542 21.6293 10.6247 21.5946 10.694 21.5466C10.7687 21.4986 10.8274 21.4346 10.87 21.3546C10.9127 21.2746 10.934 21.1786 10.934 21.0666C10.934 20.9599 10.9074 20.8693 10.854 20.7946C10.8007 20.7199 10.7234 20.6533 10.622 20.5946C10.526 20.5306 10.4034 20.4746 10.254 20.4266C10.11 20.3733 9.9447 20.3173 9.75803 20.2586C9.5767 20.1999 9.39803 20.1306 9.22203 20.0506C9.05136 19.9706 8.8967 19.8693 8.75803 19.7466C8.6247 19.6186 8.51536 19.4666 8.43003 19.2906C8.35003 19.1093 8.31003 18.8906 8.31003 18.6346C8.31003 18.3199 8.37403 18.0506 8.50203 17.8266C8.63003 17.6026 8.79803 17.4186 9.00603 17.2746C9.21403 17.1306 9.4487 17.0266 9.71003 16.9626C9.97136 16.8933 10.2354 16.8586 10.502 16.8586C10.822 16.8586 11.1474 16.9173 11.478 17.0346C11.814 17.1519 12.1074 17.3253 12.358 17.5546L11.486 18.4746ZM15.9739 22.6666H14.6059L12.4619 17.0026H13.9979L15.3099 21.0186H15.3419L16.6459 17.0026H18.1579L15.9739 22.6666ZM23.5573 22.3226C23.28 22.4666 22.9547 22.5839 22.5813 22.6746C22.2133 22.7653 21.8107 22.8106 21.3733 22.8106C20.92 22.8106 20.5013 22.7386 20.1173 22.5946C19.7387 22.4506 19.4107 22.2479 19.1333 21.9866C18.8613 21.7253 18.648 21.4133 18.4933 21.0506C18.3387 20.6826 18.2613 20.2746 18.2613 19.8266C18.2613 19.3733 18.3387 18.9626 18.4933 18.5946C18.6533 18.2266 18.872 17.9146 19.1493 17.6586C19.4267 17.3973 19.752 17.1973 20.1253 17.0586C20.4987 16.9199 20.9013 16.8506 21.3333 16.8506C21.7813 16.8506 22.1973 16.9199 22.5813 17.0586C22.9653 17.1919 23.2773 17.3733 23.5173 17.6026L22.6533 18.5866C22.52 18.4319 22.344 18.3066 22.1253 18.2106C21.9067 18.1093 21.6587 18.0586 21.3813 18.0586C21.1413 18.0586 20.92 18.1039 20.7173 18.1946C20.5147 18.2799 20.3387 18.4026 20.1893 18.5626C20.04 18.7173 19.9227 18.9039 19.8373 19.1226C19.7573 19.3359 19.7173 19.5706 19.7173 19.8266C19.7173 20.0879 19.7547 20.3279 19.8293 20.5466C19.904 20.7653 20.0133 20.9546 20.1573 21.1146C20.3067 21.2693 20.488 21.3919 20.7013 21.4826C20.92 21.5679 21.168 21.6106 21.4453 21.6106C21.6053 21.6106 21.7573 21.5999 21.9013 21.5786C22.0453 21.5519 22.1787 21.5119 22.3013 21.4586V20.4266H21.2213V19.3226H23.5573V22.3226Z" fill="#060606"/>
</g>
<defs>
<clipPath id="clip0_13581_26543">
<rect width="32" height="32" fill="white"/>
</clipPath>
</defs>
</svg>
