<svg width="32" height="32" viewBox="0 0 32 32" fill="none" xmlns="http://www.w3.org/2000/svg">
<g clip-path="url(#clip0_13581_26582)">
<path fill-rule="evenodd" clip-rule="evenodd" d="M5.33325 6.66667C5.33325 5.19391 6.52716 4 7.99992 4H20.2287C20.9359 4 21.6142 4.28095 22.1143 4.78105L25.8855 8.55228C26.3857 9.05239 26.6666 9.73065 26.6666 10.4379V25.3333C26.6666 26.8061 25.4727 28 23.9999 28H7.99992C6.52716 28 5.33325 26.8061 5.33325 25.3333V6.66667Z" stroke="#060606" stroke-width="1.5" stroke-linecap="round"/>
<path d="M20 4.33337V8.00004C20 9.4728 21.1939 10.6667 22.6667 10.6667H26.3333" stroke="#060606" stroke-width="1.5" stroke-linecap="round"/>
<path d="M11.6801 20.7306C11.6801 20.9546 11.6534 21.1893 11.6001 21.4346C11.5521 21.6799 11.4587 21.9066 11.3201 22.1146C11.1867 22.3173 10.9974 22.4853 10.7521 22.6186C10.5121 22.7519 10.2001 22.8186 9.81607 22.8186C9.33607 22.8186 8.93607 22.6959 8.61607 22.4506C8.29607 22.1999 8.08274 21.8799 7.97607 21.4906L9.18407 21.0826C9.22141 21.2319 9.28807 21.3519 9.38407 21.4426C9.48541 21.5333 9.60807 21.5786 9.75207 21.5786C9.97607 21.5786 10.1227 21.5013 10.1921 21.3466C10.2667 21.1919 10.3041 20.9893 10.3041 20.7386V17.0026H11.6801V20.7306ZM17.1145 18.7466C17.1145 19.0773 17.0531 19.3573 16.9305 19.5866C16.8078 19.8106 16.6425 19.9919 16.4345 20.1306C16.2265 20.2693 15.9865 20.3706 15.7145 20.4346C15.4425 20.4986 15.1598 20.5306 14.8665 20.5306H14.1865V22.6666H12.8184V17.0026H14.8985C15.2078 17.0026 15.4958 17.0346 15.7625 17.0986C16.0345 17.1573 16.2691 17.2559 16.4665 17.3946C16.6691 17.5279 16.8265 17.7066 16.9385 17.9306C17.0558 18.1493 17.1145 18.4213 17.1145 18.7466ZM15.7465 18.7546C15.7465 18.6213 15.7198 18.5119 15.6665 18.4266C15.6131 18.3413 15.5411 18.2746 15.4505 18.2266C15.3598 18.1786 15.2558 18.1466 15.1385 18.1306C15.0265 18.1146 14.9091 18.1066 14.7865 18.1066H14.1865V19.4426H14.7625C14.8905 19.4426 15.0131 19.4319 15.1305 19.4106C15.2478 19.3893 15.3518 19.3519 15.4425 19.2986C15.5385 19.2453 15.6131 19.1759 15.6665 19.0906C15.7198 18.9999 15.7465 18.8879 15.7465 18.7546ZM22.9677 22.3226C22.6903 22.4666 22.365 22.5839 21.9917 22.6746C21.6237 22.7653 21.221 22.8106 20.7837 22.8106C20.3303 22.8106 19.9117 22.7386 19.5277 22.5946C19.149 22.4506 18.821 22.2479 18.5437 21.9866C18.2717 21.7253 18.0583 21.4133 17.9037 21.0506C17.749 20.6826 17.6717 20.2746 17.6717 19.8266C17.6717 19.3733 17.749 18.9626 17.9037 18.5946C18.0637 18.2266 18.2823 17.9146 18.5597 17.6586C18.837 17.3973 19.1623 17.1973 19.5357 17.0586C19.909 16.9199 20.3117 16.8506 20.7437 16.8506C21.1917 16.8506 21.6077 16.9199 21.9917 17.0586C22.3757 17.1919 22.6877 17.3733 22.9277 17.6026L22.0637 18.5866C21.9303 18.4319 21.7543 18.3066 21.5357 18.2106C21.317 18.1093 21.069 18.0586 20.7917 18.0586C20.5517 18.0586 20.3303 18.1039 20.1277 18.1946C19.925 18.2799 19.749 18.4026 19.5997 18.5626C19.4503 18.7173 19.333 18.9039 19.2477 19.1226C19.1677 19.3359 19.1277 19.5706 19.1277 19.8266C19.1277 20.0879 19.165 20.3279 19.2397 20.5466C19.3143 20.7653 19.4237 20.9546 19.5677 21.1146C19.717 21.2693 19.8983 21.3919 20.1117 21.4826C20.3303 21.5679 20.5783 21.6106 20.8557 21.6106C21.0157 21.6106 21.1677 21.5999 21.3117 21.5786C21.4557 21.5519 21.589 21.5119 21.7117 21.4586V20.4266H20.6317V19.3226H22.9677V22.3226Z" fill="#060606"/>
</g>
<defs>
<clipPath id="clip0_13581_26582">
<rect width="32" height="32" fill="white"/>
</clipPath>
</defs>
</svg>
