<svg width="32" height="32" viewBox="0 0 32 32" fill="none" xmlns="http://www.w3.org/2000/svg">
<g clip-path="url(#clip0_13581_26583)">
<path d="M5.33325 6.66663H21.3333" stroke="#060606" stroke-width="1.5" stroke-linecap="round"/>
<path d="M5.33325 16H13.3333" stroke="#060606" stroke-width="2" stroke-linecap="round"/>
<path d="M18.6667 16H26.6667" stroke="#060606" stroke-width="1.5" stroke-linecap="round"/>
<path d="M10.6667 25.3334H26.6667" stroke="#060606" stroke-width="1.5" stroke-linecap="round"/>
<path d="M23.9999 9.33333C25.4727 9.33333 26.6666 8.13943 26.6666 6.66667C26.6666 5.19391 25.4727 4 23.9999 4C22.5272 4 21.3333 5.19391 21.3333 6.66667C21.3333 8.13943 22.5272 9.33333 23.9999 9.33333Z" stroke="#060606" stroke-width="1.5" stroke-linecap="round"/>
<path d="M15.9999 18.6667C17.4727 18.6667 18.6666 17.4728 18.6666 16C18.6666 14.5273 17.4727 13.3334 15.9999 13.3334C14.5272 13.3334 13.3333 14.5273 13.3333 16C13.3333 17.4728 14.5272 18.6667 15.9999 18.6667Z" stroke="#060606" stroke-width="1.5" stroke-linecap="round"/>
<path d="M7.99992 28C9.47268 28 10.6666 26.8061 10.6666 25.3333C10.6666 23.8605 9.47268 22.6666 7.99992 22.6666C6.52716 22.6666 5.33325 23.8605 5.33325 25.3333C5.33325 26.8061 6.52716 28 7.99992 28Z" stroke="#060606" stroke-width="1.5" stroke-linecap="round"/>
</g>
<defs>
<clipPath id="clip0_13581_26583">
<rect width="32" height="32" fill="white"/>
</clipPath>
</defs>
</svg>
