<svg width="32" height="32" viewBox="0 0 32 32" fill="none" xmlns="http://www.w3.org/2000/svg">
<g clip-path="url(#clip0_13581_26563)">
<path fill-rule="evenodd" clip-rule="evenodd" d="M5.33325 6.66667C5.33325 5.19391 6.52716 4 7.99992 4H20.2287C20.9359 4 21.6142 4.28095 22.1143 4.78105L25.8855 8.55228C26.3857 9.05239 26.6666 9.73065 26.6666 10.4379V25.3333C26.6666 26.8061 25.4727 28 23.9999 28H7.99992C6.52716 28 5.33325 26.8061 5.33325 25.3333V6.66667Z" stroke="#060606" stroke-width="1.5" stroke-linecap="round"/>
<path d="M20 4.33337V8.00004C20 9.4728 21.1939 10.6667 22.6667 10.6667H26.3333" stroke="#060606" stroke-width="1.5" stroke-linecap="round"/>
<path fill-rule="evenodd" clip-rule="evenodd" d="M19.0471 16.5716L14.3429 19.3943C13.8986 19.6608 13.3333 19.3408 13.3333 18.8225V13.1775C13.3333 12.6593 13.8986 12.3392 14.3429 12.6058L19.0471 15.4284C19.4787 15.6873 19.4787 16.3127 19.0471 16.5716Z" stroke="#060606" stroke-width="1.5" stroke-linecap="round"/>
</g>
<defs>
<clipPath id="clip0_13581_26563">
<rect width="32" height="32" fill="white"/>
</clipPath>
</defs>
</svg>
