<svg width="32" height="32" viewBox="0 0 32 32" fill="none" xmlns="http://www.w3.org/2000/svg">
<g clip-path="url(#clip0_13581_26611)">
<path fill-rule="evenodd" clip-rule="evenodd" d="M5.33325 6.66667C5.33325 5.19391 6.52716 4 7.99992 4H20.2287C20.9359 4 21.6142 4.28095 22.1143 4.78105L25.8855 8.55228C26.3857 9.05239 26.6666 9.73065 26.6666 10.4379V25.3333C26.6666 26.8061 25.4727 28 23.9999 28H7.99992C6.52716 28 5.33325 26.8061 5.33325 25.3333V6.66667Z" stroke="#060606" stroke-width="1.5" stroke-linecap="round"/>
<path d="M20 5.33337V8.00004C20 9.4728 21.1939 10.6667 22.6667 10.6667H25.3333" stroke="#060606" stroke-width="1.5" stroke-linecap="round"/>
<path d="M16 20H14C12.8954 20 12 20.8955 12 22C12 23.1046 12.8954 24 14 24C15.1045 24 16 23.1046 16 22V14.5206C16 14.2147 16.2081 13.948 16.5049 13.8738L18.6667 13.3334" stroke="#060606" stroke-width="1.5" stroke-linecap="round"/>
</g>
<defs>
<clipPath id="clip0_13581_26611">
<rect width="32" height="32" fill="white"/>
</clipPath>
</defs>
</svg>
