<svg width="32" height="32" viewBox="0 0 32 32" fill="none" xmlns="http://www.w3.org/2000/svg">
<g clip-path="url(#clip0_13581_26581)">
<path d="M20 20C22.2091 20 24 18.2091 24 16C24 13.7909 22.2091 12 20 12C17.7909 12 16 13.7909 16 16C16 18.2091 17.7909 20 20 20Z" stroke="#060606" stroke-width="1.5" stroke-linecap="round"/>
<path fill-rule="evenodd" clip-rule="evenodd" d="M8 24C8 21.7908 9.79087 20 12 20H16V24C16 26.2092 14.2092 28 12 28C9.79087 28 8 26.2092 8 24Z" stroke="#060606" stroke-width="1.5" stroke-linecap="round"/>
<path fill-rule="evenodd" clip-rule="evenodd" d="M8 16C8 13.7908 9.79087 12 12 12H16V20H12C9.79087 20 8 18.2092 8 16Z" stroke="#060606" stroke-width="1.5" stroke-linecap="round"/>
<path fill-rule="evenodd" clip-rule="evenodd" d="M8 8C8 5.79087 9.79087 4 12 4H16V12H12C9.79087 12 8 10.2091 8 8Z" stroke="#060606" stroke-width="1.5" stroke-linecap="round"/>
<path fill-rule="evenodd" clip-rule="evenodd" d="M16 4H20C22.2092 4 24 5.79087 24 8C24 10.2091 22.2092 12 20 12H16V4Z" stroke="#060606" stroke-width="1.5" stroke-linecap="round"/>
</g>
<defs>
<clipPath id="clip0_13581_26581">
<rect width="32" height="32" fill="white"/>
</clipPath>
</defs>
</svg>
