<svg width="32" height="32" viewBox="0 0 32 32" fill="none" xmlns="http://www.w3.org/2000/svg">
<g clip-path="url(#clip0_13581_26534)">
<path d="M11.3333 5.33337H7.33325C6.22868 5.33337 5.33325 6.2288 5.33325 7.33337V11.3334C5.33325 12.4379 6.22868 13.3334 7.33325 13.3334H11.3333C12.4378 13.3334 13.3333 12.4379 13.3333 11.3334V7.33337C13.3333 6.2288 12.4378 5.33337 11.3333 5.33337Z" stroke="#060606" stroke-width="1.5" stroke-linecap="round"/>
<path d="M11.3333 18.6666H7.33325C6.22868 18.6666 5.33325 19.5621 5.33325 20.6666V24.6666C5.33325 25.7712 6.22868 26.6666 7.33325 26.6666H11.3333C12.4378 26.6666 13.3333 25.7712 13.3333 24.6666V20.6666C13.3333 19.5621 12.4378 18.6666 11.3333 18.6666Z" stroke="#060606" stroke-width="1.5" stroke-linecap="round"/>
<path d="M24.6667 5.33337H20.6667C19.5622 5.33337 18.6667 6.2288 18.6667 7.33337V11.3334C18.6667 12.4379 19.5622 13.3334 20.6667 13.3334H24.6667C25.7713 13.3334 26.6667 12.4379 26.6667 11.3334V7.33337C26.6667 6.2288 25.7713 5.33337 24.6667 5.33337Z" stroke="#060606" stroke-width="1.5" stroke-linecap="round"/>
<path d="M24.6667 18.6666H20.6667C19.5622 18.6666 18.6667 19.5621 18.6667 20.6666V24.6666C18.6667 25.7712 19.5622 26.6666 20.6667 26.6666H24.6667C25.7713 26.6666 26.6667 25.7712 26.6667 24.6666V20.6666C26.6667 19.5621 25.7713 18.6666 24.6667 18.6666Z" stroke="#060606" stroke-width="1.5" stroke-linecap="round"/>
</g>
<defs>
<clipPath id="clip0_13581_26534">
<rect width="32" height="32" fill="white"/>
</clipPath>
</defs>
</svg>
