<svg width="32" height="32" viewBox="0 0 32 32" fill="none" xmlns="http://www.w3.org/2000/svg">
<g clip-path="url(#clip0_13581_26574)">
<path d="M28 22.6666C28 20.4575 26.2091 18.6666 24 18.6666C21.7909 18.6666 20 20.4575 20 22.6666V24C20 26.2091 21.7909 28 24 28C26.2091 28 28 26.2091 28 24V22.6666Z" stroke="#060606" stroke-width="1.5" stroke-linecap="round"/>
<path fill-rule="evenodd" clip-rule="evenodd" d="M4 22.6666C4 20.4574 5.79087 18.6666 8 18.6666C10.2091 18.6666 12 20.4574 12 22.6666V24C12 26.2092 10.2091 28 8 28C5.79087 28 4 26.2092 4 24V22.6666Z" stroke="#060606" stroke-width="1.5" stroke-linecap="round"/>
<path d="M28 24V14.6667C28 8.77563 23.2244 4 17.3333 4H14.6667C8.77563 4 4 8.77563 4 14.6667V24" stroke="#060606" stroke-width="1.5" stroke-linecap="round"/>
</g>
<defs>
<clipPath id="clip0_13581_26574">
<rect width="32" height="32" fill="white"/>
</clipPath>
</defs>
</svg>
