<svg width="32" height="32" viewBox="0 0 32 32" fill="none" xmlns="http://www.w3.org/2000/svg">
<g clip-path="url(#clip0_13581_26555)">
<path d="M23.9999 5.33337H7.99992C6.52716 5.33337 5.33325 6.52728 5.33325 8.00004V24C5.33325 25.4728 6.52716 26.6667 7.99992 26.6667H23.9999C25.4727 26.6667 26.6666 25.4728 26.6666 24V8.00004C26.6666 6.52728 25.4727 5.33337 23.9999 5.33337Z" stroke="#060606" stroke-width="1.5" stroke-linecap="round"/>
<path d="M11.3333 12.6667C12.0697 12.6667 12.6667 12.0697 12.6667 11.3333C12.6667 10.597 12.0697 10 11.3333 10C10.597 10 10 10.597 10 11.3333C10 12.0697 10.597 12.6667 11.3333 12.6667Z" stroke="#060606" stroke-width="1.5" stroke-linecap="round"/>
<path d="M6.66675 25.3334L13.6647 17.169C14.1934 16.5523 15.1458 16.5475 15.6806 17.1587L24.0001 26.6667" stroke="#060606" stroke-width="1.5" stroke-linecap="round"/>
<path d="M18 19.3334L21.0629 15.7599C21.5684 15.1702 22.4689 15.1357 23.0181 15.6849L26.6667 19.3334" stroke="#060606" stroke-width="1.5" stroke-linecap="round"/>
</g>
<defs>
<clipPath id="clip0_13581_26555">
<rect width="32" height="32" fill="white"/>
</clipPath>
</defs>
</svg>
