<svg width="32" height="32" viewBox="0 0 32 32" fill="none" xmlns="http://www.w3.org/2000/svg">
<g clip-path="url(#clip0_13581_26608)">
<path fill-rule="evenodd" clip-rule="evenodd" d="M16.0001 8.00004C16.7365 8.00004 17.3334 7.40309 17.3334 6.66671C17.3334 5.93033 16.7365 5.33337 16.0001 5.33337C15.2637 5.33337 14.6667 5.93033 14.6667 6.66671C14.6667 7.40309 15.2637 8.00004 16.0001 8.00004Z" stroke="#060606" stroke-width="1.5" stroke-linecap="round"/>
<path fill-rule="evenodd" clip-rule="evenodd" d="M16.0001 17.3333C16.7365 17.3333 17.3334 16.7363 17.3334 16C17.3334 15.2636 16.7365 14.6666 16.0001 14.6666C15.2637 14.6666 14.6667 15.2636 14.6667 16C14.6667 16.7363 15.2637 17.3333 16.0001 17.3333Z" stroke="#060606" stroke-width="1.5" stroke-linecap="round"/>
<path fill-rule="evenodd" clip-rule="evenodd" d="M16.0001 26.6667C16.7365 26.6667 17.3334 26.0697 17.3334 25.3333C17.3334 24.597 16.7365 24 16.0001 24C15.2637 24 14.6667 24.597 14.6667 25.3333C14.6667 26.0697 15.2637 26.6667 16.0001 26.6667Z" stroke="#060606" stroke-width="1.5" stroke-linecap="round"/>
</g>
<defs>
<clipPath id="clip0_13581_26608">
<rect width="32" height="32" fill="white"/>
</clipPath>
</defs>
</svg>
