<svg width="32" height="32" viewBox="0 0 32 32" fill="none" xmlns="http://www.w3.org/2000/svg">
<g clip-path="url(#clip0_13581_26625)">
<path d="M13.3333 8H25.3333" stroke="#060606" stroke-width="1.5" stroke-linecap="round"/>
<path d="M13.3333 24H25.3333" stroke="#060606" stroke-width="1.5" stroke-linecap="round"/>
<path d="M13.3333 16H25.3333" stroke="#060606" stroke-width="1.5" stroke-linecap="round"/>
<path d="M7.00226 7.568L6.3676 8.00533L5.77026 7.07733L7.10893 6.224H8.28226V10H7.00226V7.568Z" fill="#060606"/>
<path d="M7.31157 15.8186C7.37201 15.7724 7.4218 15.7209 7.46091 15.664C7.50001 15.607 7.51957 15.5484 7.51957 15.488C7.51957 15.4169 7.49647 15.3546 7.45024 15.3013C7.40757 15.248 7.33824 15.2213 7.24224 15.2213C7.13913 15.2213 7.0538 15.2622 6.98624 15.344C6.91868 15.4257 6.88135 15.536 6.87424 15.6746L5.66357 15.536C5.68847 15.2906 5.75247 15.079 5.85557 14.9013C5.95868 14.7236 6.08668 14.576 6.23957 14.4586C6.39601 14.3413 6.56847 14.256 6.75691 14.2026C6.94891 14.1457 7.14624 14.1173 7.34891 14.1173C7.5338 14.1173 7.71691 14.1404 7.89824 14.1866C8.08313 14.2329 8.24668 14.3057 8.38891 14.4053C8.53113 14.5013 8.64668 14.6276 8.73557 14.784C8.82447 14.9404 8.86891 15.1289 8.86891 15.3493C8.86891 15.5057 8.84757 15.6444 8.80491 15.7653C8.7658 15.8826 8.71068 15.9876 8.63957 16.08C8.57201 16.1724 8.4938 16.256 8.40491 16.3306C8.31957 16.4053 8.22891 16.4764 8.13291 16.544L7.57824 16.9386H8.87957V18H5.81824V17.0133L7.31157 15.8186Z" fill="#060606"/>
<path d="M8.30876 24.0213C8.40476 24.0533 8.49186 24.0977 8.57009 24.1546C8.65186 24.2116 8.7212 24.2773 8.77809 24.352C8.83498 24.4266 8.87765 24.5084 8.90609 24.5973C8.93809 24.6826 8.95409 24.7697 8.95409 24.8586C8.95409 25.079 8.90786 25.2693 8.81542 25.4293C8.72298 25.5857 8.60209 25.7156 8.45276 25.8186C8.30342 25.9182 8.13453 25.991 7.94609 26.0373C7.75765 26.0836 7.56742 26.1066 7.37542 26.1066C7.18342 26.1066 6.9932 26.0836 6.80476 26.0373C6.61986 25.9946 6.4492 25.9253 6.29276 25.8293C6.13986 25.7333 6.00476 25.6124 5.88742 25.4666C5.77365 25.3209 5.69186 25.1466 5.64209 24.944L6.82609 24.6666C6.84742 24.759 6.89898 24.8444 6.98076 24.9226C7.06609 25.0009 7.17453 25.04 7.30609 25.04C7.34165 25.04 7.37898 25.0364 7.41809 25.0293C7.4572 25.0186 7.49276 25.0044 7.52476 24.9866C7.55676 24.9653 7.58342 24.9386 7.60476 24.9066C7.62609 24.8746 7.63676 24.8337 7.63676 24.784C7.63676 24.6702 7.58698 24.5956 7.48742 24.56C7.38786 24.5244 7.25453 24.5066 7.08742 24.5066H6.72476V23.632H7.13009C7.2652 23.632 7.37365 23.6142 7.45542 23.5786C7.5372 23.5396 7.57809 23.4666 7.57809 23.36C7.57809 23.2782 7.54609 23.2213 7.48209 23.1893C7.41809 23.1573 7.35053 23.1413 7.27942 23.1413C7.19053 23.1413 7.10876 23.1697 7.03409 23.2266C6.95942 23.28 6.9132 23.36 6.89542 23.4666L5.71676 23.216C5.78076 23.0097 5.87142 22.8373 5.98876 22.6986C6.10609 22.5564 6.23942 22.4426 6.38876 22.3573C6.54165 22.272 6.70342 22.2116 6.87409 22.176C7.04832 22.1369 7.21898 22.1173 7.38609 22.1173C7.5532 22.1173 7.72565 22.1386 7.90342 22.1813C8.0812 22.2204 8.24298 22.2862 8.38876 22.3786C8.53453 22.4676 8.65365 22.583 8.74609 22.7253C8.83853 22.864 8.88476 23.0329 8.88476 23.232C8.88476 23.4453 8.82786 23.616 8.71409 23.744C8.60386 23.8684 8.46876 23.9537 8.30876 24V24.0213Z" fill="#060606"/>
</g>
<defs>
<clipPath id="clip0_13581_26625">
<rect width="32" height="32" fill="white"/>
</clipPath>
</defs>
</svg>
