<svg width="32" height="32" viewBox="0 0 32 32" fill="none" xmlns="http://www.w3.org/2000/svg">
<g clip-path="url(#clip0_13581_26565)">
<path d="M22.6667 10.6666H9.33341C7.86066 10.6666 6.66675 11.8605 6.66675 13.3333V24C6.66675 25.4727 7.86066 26.6666 9.33341 26.6666H22.6667C24.1395 26.6666 25.3334 25.4727 25.3334 24V13.3333C25.3334 11.8605 24.1395 10.6666 22.6667 10.6666Z" stroke="#060606" stroke-width="1.5" stroke-linecap="round"/>
<path d="M10.6667 10.6667V9.33333C10.6667 6.38781 13.0546 4 16.0001 4C18.9455 4 21.3334 6.38781 21.3334 9.33333V10.6667" stroke="#060606" stroke-width="1.5" stroke-linecap="round"/>
<path d="M15.9999 21.3333C17.4727 21.3333 18.6666 20.1394 18.6666 18.6667C18.6666 17.1939 17.4727 16 15.9999 16C14.5272 16 13.3333 17.1939 13.3333 18.6667C13.3333 20.1394 14.5272 21.3333 15.9999 21.3333Z" fill="#060606"/>
<path d="M16 16V21.3333" stroke="#060606" stroke-width="1.5" stroke-linecap="round"/>
</g>
<defs>
<clipPath id="clip0_13581_26565">
<rect width="32" height="32" fill="white"/>
</clipPath>
</defs>
</svg>
