<svg width="32" height="24" viewBox="0 0 32 24" fill="none" xmlns="http://www.w3.org/2000/svg">
<rect width="32" height="24" rx="4" fill="#060615"/>
<path d="M18.9778 17.042H13.0273V7.3231H18.9778V17.042Z" fill="#FF5F00"/>
<path d="M13.6389 12.1816C13.6382 13.1175 13.8503 14.0412 14.2593 14.883C14.6683 15.7247 15.2634 16.4624 15.9995 17.0402C15.0878 17.7568 13.9928 18.2024 12.8397 18.3261C11.6867 18.4498 10.5221 18.2466 9.4791 17.7397C8.43608 17.2328 7.55671 16.4427 6.94148 15.4597C6.32626 14.4767 6 13.3404 6 12.1808C6 11.0211 6.32626 9.88486 6.94148 8.90186C7.55671 7.91885 8.43608 7.12877 9.4791 6.62189C10.5221 6.11502 11.6867 5.91182 12.8397 6.0355C13.9928 6.15919 15.0878 6.60478 15.9995 7.32134C15.2631 7.89932 14.6679 8.63729 14.2589 9.47936C13.8499 10.3214 13.6379 11.2455 13.6389 12.1816Z" fill="#EB001B"/>
<path d="M26.0005 12.1812C26.0004 11.0214 25.6741 9.88509 25.0588 8.90205C24.4434 7.91901 23.5639 7.12894 22.5208 6.62214C21.4776 6.11534 20.3129 5.91226 19.1598 6.03613C18.0067 6.15999 16.9117 6.60579 16 7.32258C16.7359 7.9009 17.3308 8.63879 17.7399 9.48059C18.149 10.3224 18.3615 11.2461 18.3615 12.182C18.3615 13.118 18.149 14.0417 17.7399 14.8835C17.3308 15.7253 16.7359 16.4632 16 17.0415C16.9117 17.7583 18.0067 18.2041 19.1598 18.3279C20.3129 18.4518 21.4776 18.2487 22.5208 17.7419C23.5639 17.2351 24.4434 16.445 25.0588 15.462C25.6741 14.479 26.0004 13.3426 26.0005 12.1829V12.1812Z" fill="url(#paint0_linear_13524_4686)"/>
<defs>
<linearGradient id="paint0_linear_13524_4686" x1="27.8025" y1="18.2859" x2="21.0002" y2="6.00077" gradientUnits="userSpaceOnUse">
<stop stop-color="#F79E1B"/>
<stop offset="1" stop-color="#FFBF62"/>
</linearGradient>
</defs>
</svg>
