<svg width="32" height="32" viewBox="0 0 32 32" fill="none" xmlns="http://www.w3.org/2000/svg">
<g clip-path="url(#clip0_13581_26566)">
<path fill-rule="evenodd" clip-rule="evenodd" d="M6.66667 18.6667C8.13943 18.6667 9.33333 17.4728 9.33333 16C9.33333 14.5273 8.13943 13.3334 6.66667 13.3334C5.19391 13.3334 4 14.5273 4 16C4 17.4728 5.19391 18.6667 6.66667 18.6667Z" fill="#060606"/>
<path fill-rule="evenodd" clip-rule="evenodd" d="M15.9999 18.6667C17.4727 18.6667 18.6666 17.4728 18.6666 16C18.6666 14.5273 17.4727 13.3334 15.9999 13.3334C14.5272 13.3334 13.3333 14.5273 13.3333 16C13.3333 17.4728 14.5272 18.6667 15.9999 18.6667Z" fill="#060606"/>
<path fill-rule="evenodd" clip-rule="evenodd" d="M25.3334 18.6667C26.8062 18.6667 28.0001 17.4728 28.0001 16C28.0001 14.5273 26.8062 13.3334 25.3334 13.3334C23.8607 13.3334 22.6667 14.5273 22.6667 16C22.6667 17.4728 23.8607 18.6667 25.3334 18.6667Z" fill="#060606"/>
</g>
<defs>
<clipPath id="clip0_13581_26566">
<rect width="32" height="32" fill="white"/>
</clipPath>
</defs>
</svg>
