<svg width="32" height="32" viewBox="0 0 32 32" fill="none" xmlns="http://www.w3.org/2000/svg">
<g clip-path="url(#clip0_13581_26548)">
<path d="M21.3333 8H7.99992C6.52716 8 5.33325 9.19391 5.33325 10.6667V18.6667C5.33325 20.1394 6.52716 21.3333 7.99992 21.3333H21.3333C22.806 21.3333 23.9999 20.1394 23.9999 18.6667V10.6667C23.9999 9.19391 22.806 8 21.3333 8Z" stroke="#060606" stroke-width="1.5" stroke-linecap="round"/>
<path d="M27.9999 12V22.6667C27.9999 24.1395 26.8061 25.3333 25.3333 25.3333H9.33325" stroke="#060606" stroke-width="1.5" stroke-linecap="round"/>
<path d="M14.6667 17.3333C16.1394 17.3333 17.3333 16.1394 17.3333 14.6667C17.3333 13.1939 16.1394 12 14.6667 12C13.1939 12 12 13.1939 12 14.6667C12 16.1394 13.1939 17.3333 14.6667 17.3333Z" stroke="#060606" stroke-width="1.5" stroke-linecap="round"/>
</g>
<defs>
<clipPath id="clip0_13581_26548">
<rect width="32" height="32" fill="white"/>
</clipPath>
</defs>
</svg>
