<svg width="32" height="32" viewBox="0 0 32 32" fill="none" xmlns="http://www.w3.org/2000/svg">
<g clip-path="url(#clip0_13581_26605)">
<path fill-rule="evenodd" clip-rule="evenodd" d="M5.33325 8.00004C5.33325 6.52728 6.52716 5.33337 7.99992 5.33337H23.9999C25.4727 5.33337 26.6666 6.52728 26.6666 8.00004V18.6667C26.6666 20.1395 25.4727 21.3334 23.9999 21.3334H16.2761C16.0993 21.3334 15.9297 21.4036 15.8047 21.5286L11.8047 25.5286C11.3847 25.9486 10.6666 25.6511 10.6666 25.0572V22C10.6666 21.6319 10.3681 21.3334 9.99992 21.3334H7.99992C6.52716 21.3334 5.33325 20.1395 5.33325 18.6667V8.00004Z" stroke="#060606" stroke-width="1.5" stroke-linecap="round"/>
<path d="M10.6667 10.6666H21.3334" stroke="#060606" stroke-width="1.5" stroke-linecap="round"/>
<path d="M10.6667 16H14.6667" stroke="#060606" stroke-width="1.5" stroke-linecap="round"/>
</g>
<defs>
<clipPath id="clip0_13581_26605">
<rect width="32" height="32" fill="white"/>
</clipPath>
</defs>
</svg>
