<svg width="32" height="32" viewBox="0 0 32 32" fill="none" xmlns="http://www.w3.org/2000/svg">
<g clip-path="url(#clip0_13581_26598)">
<path d="M25.3333 14.0952V24C25.3333 25.4727 24.1393 26.6666 22.6666 26.6666H7.99992C6.52716 26.6666 5.33325 25.4727 5.33325 24V9.33329C5.33325 7.86053 6.52716 6.66663 7.99992 6.66663H17.9047" stroke="#060606" stroke-width="1.5" stroke-linecap="round" stroke-linejoin="round"/>
<path fill-rule="evenodd" clip-rule="evenodd" d="M24.0001 9.33329C24.7365 9.33329 25.3334 8.73634 25.3334 7.99996C25.3334 7.26358 24.7365 6.66663 24.0001 6.66663C23.2637 6.66663 22.6667 7.26358 22.6667 7.99996C22.6667 8.73634 23.2637 9.33329 24.0001 9.33329Z" stroke="#060606" stroke-width="1.5" stroke-linecap="round"/>
<path d="M10.6667 20L14.6667 14.6667L17.3345 17.3333L21.3334 12" stroke="#060606" stroke-width="1.5" stroke-linecap="round" stroke-linejoin="round"/>
</g>
<defs>
<clipPath id="clip0_13581_26598">
<rect width="32" height="32" fill="white"/>
</clipPath>
</defs>
</svg>
