<svg width="32" height="32" viewBox="0 0 32 32" fill="none" xmlns="http://www.w3.org/2000/svg">
<g clip-path="url(#clip0_13581_26539)">
<path fill-rule="evenodd" clip-rule="evenodd" d="M5.40044 26.5998C6.34324 27.5426 7.28605 27.5426 8.70026 27.0711L22.6328 19.8938C23.4358 19.48 23.6037 18.4044 22.965 17.7656L14.2345 9.03513C13.5957 8.39639 12.5201 8.56429 12.1064 9.36733L4.92902 23.2999C4.45762 24.714 4.45762 25.6568 5.40044 26.5998Z" stroke="#060606" stroke-width="1.5" stroke-linecap="round"/>
<path d="M24 8L25.8233 7.08831C26.2383 6.88088 26.328 6.32797 26 6C25.672 5.67203 25.7617 5.11912 26.1767 4.91169L28 4" stroke="#060606" stroke-width="1.5" stroke-linecap="round"/>
<path d="M21.3333 10.6666H21.4999" stroke="#060606" stroke-width="1.5" stroke-linecap="round"/>
<path d="M25.8333 15.3334H25.9999" stroke="#060606" stroke-width="1.5" stroke-linecap="round"/>
<path d="M16.0001 5.33337L14.6667 3.33337" stroke="#060606" stroke-width="1.5" stroke-linecap="round"/>
<path d="M20.6667 5.99996L21.3334 2.66663" stroke="#060606" stroke-width="1.5" stroke-linecap="round"/>
<path d="M29.3333 12L26 11.3334" stroke="#060606" stroke-width="1.5" stroke-linecap="round"/>
<path d="M16 11.3334V23.3334" stroke="#060606" stroke-width="1.5" stroke-linecap="round"/>
<path d="M10.6667 12.6666V26" stroke="#060606" stroke-width="1.5" stroke-linecap="round"/>
</g>
<defs>
<clipPath id="clip0_13581_26539">
<rect width="32" height="32" fill="white"/>
</clipPath>
</defs>
</svg>
