<svg width="32" height="32" viewBox="0 0 32 32" fill="none" xmlns="http://www.w3.org/2000/svg">
<g clip-path="url(#clip0_13581_26546)">
<path fill-rule="evenodd" clip-rule="evenodd" d="M24.8867 19.1288C23.8593 18.998 22.8507 18.7474 21.8815 18.3822C21.0937 18.0922 20.2091 18.2787 19.6055 18.8622C18.8085 19.6696 17.5562 19.8558 16.6391 19.1879C15.1907 18.133 13.9158 16.8584 12.8607 15.4103C12.1927 14.4935 12.3789 13.2413 13.1863 12.4445C13.7591 11.8425 13.9447 10.9696 13.6665 10.1867C13.2678 9.19798 12.9873 8.16564 12.8307 7.11116C12.6264 6.07582 11.7168 5.33046 10.6613 5.33338H7.47839C6.87185 5.33264 6.29225 5.58375 5.87804 6.02672C5.47652 6.47175 5.28265 7.06615 5.34459 7.66227C5.68859 10.9728 6.81622 14.1539 8.6342 16.9422C10.2829 19.5326 12.4803 21.7294 15.0711 23.3778C17.8638 25.1747 21.0347 26.3004 24.3355 26.6668H24.5133C25.0542 26.6703 25.5759 26.4667 25.9714 26.0978C26.4154 25.6918 26.6671 25.1171 26.6649 24.5155V21.3334C26.7078 20.2571 25.9478 19.315 24.8867 19.1288Z" stroke="#060606" stroke-width="1.5" stroke-linecap="round"/>
</g>
<defs>
<clipPath id="clip0_13581_26546">
<rect width="32" height="32" fill="white"/>
</clipPath>
</defs>
</svg>
