<svg width="32" height="32" viewBox="0 0 32 32" fill="none" xmlns="http://www.w3.org/2000/svg">
<g clip-path="url(#clip0_13581_26606)">
<path d="M24 8.66663C24 7.56206 23.1046 6.66663 22 6.66663C20.8954 6.66663 20 7.56206 20 8.66663V23.3333C20 24.4379 20.8954 25.3333 22 25.3333C23.1046 25.3333 24 24.4379 24 23.3333V8.66663Z" stroke="#060606" stroke-width="1.5" stroke-linecap="round"/>
<path d="M12 8.66663C12 7.56206 11.1046 6.66663 10 6.66663C8.89543 6.66663 8 7.56206 8 8.66663V23.3333C8 24.4379 8.89543 25.3333 10 25.3333C11.1046 25.3333 12 24.4379 12 23.3333V8.66663Z" stroke="#060606" stroke-width="1.5" stroke-linecap="round"/>
</g>
<defs>
<clipPath id="clip0_13581_26606">
<rect width="32" height="32" fill="white"/>
</clipPath>
</defs>
</svg>
