<svg width="61" height="15" viewBox="0 0 61 15" fill="none" xmlns="http://www.w3.org/2000/svg">
<path d="M7.60849 4.67401H10.2612C10.2228 2.34091 8.30522 0.730113 5.39045 0.730113C2.52042 0.730113 0.417436 2.31534 0.43022 4.69318C0.423828 6.62358 1.78533 7.7294 3.99698 8.25994L5.42241 8.6179C6.84783 8.96307 7.64045 9.37216 7.64684 10.2543C7.64045 11.2131 6.73278 11.8651 5.32653 11.8651C3.88832 11.8651 2.85281 11.2003 2.76332 9.88991H0.0850497C0.155362 12.7216 2.18164 14.1854 5.35849 14.1854C8.55451 14.1854 10.4338 12.6577 10.4402 10.2607C10.4338 8.08097 8.79102 6.92401 6.51545 6.41264L5.33931 6.13139C4.20153 5.86932 3.24911 5.44744 3.26829 4.50781C3.26829 3.66406 4.01616 3.04403 5.37127 3.04403C6.69443 3.04403 7.50621 3.64489 7.60849 4.67401ZM16.6868 14.1918C19.6655 14.1918 21.5192 12.1527 21.5192 9.12926C21.5192 6.08665 19.6655 4.05398 16.6868 4.05398C13.7081 4.05398 11.8544 6.08665 11.8544 9.12926C11.8544 12.1527 13.7081 14.1918 16.6868 14.1918ZM16.6996 12.0824C15.3253 12.0824 14.6222 10.8232 14.6222 9.11009C14.6222 7.39702 15.3253 6.13139 16.6996 6.13139C18.0483 6.13139 18.7514 7.39702 18.7514 9.11009C18.7514 10.8232 18.0483 12.0824 16.6996 12.0824ZM29.5859 9.8196C29.5923 11.1364 28.6911 11.8267 27.7131 11.8267C26.6839 11.8267 26.0192 11.1044 26.0128 9.94744V4.18182H23.2898V10.4332C23.2962 12.728 24.6385 14.1278 26.6136 14.1278C28.0902 14.1278 29.1513 13.3672 29.5923 12.2166H29.6946V14H32.3089V4.18182H29.5859V9.8196ZM34.487 14H37.21V8.44531C37.21 7.23722 38.0922 6.40625 39.2939 6.40625C39.671 6.40625 40.1887 6.47017 40.4444 6.55327V4.13707C40.2015 4.07955 39.8627 4.04119 39.5879 4.04119C38.4885 4.04119 37.5872 4.6804 37.2292 5.89489H37.127V4.18182H34.487V14ZM45.8313 14.1918C48.4457 14.1918 50.0884 12.6577 50.2163 10.4013H47.6467C47.4869 11.4496 46.7965 12.0376 45.8633 12.0376C44.5913 12.0376 43.7667 10.9702 43.7667 9.09091C43.7667 7.23722 44.5977 6.17614 45.8633 6.17614C46.8604 6.17614 47.4996 6.83452 47.6467 7.8125H50.2163C50.1012 5.54332 48.3817 4.05398 45.8185 4.05398C42.8398 4.05398 40.9989 6.11861 40.9989 9.12926C40.9989 12.1143 42.8079 14.1918 45.8313 14.1918ZM56.4341 14.1918C58.8631 14.1918 60.4995 13.0092 60.883 11.1875L58.3645 11.0213C58.0897 11.7692 57.3865 12.1591 56.4789 12.1591C55.1174 12.1591 54.2544 11.2578 54.2544 9.79403V9.78764H60.9405V9.03977C60.9405 5.70312 58.9206 4.05398 56.3255 4.05398C53.4363 4.05398 51.5634 6.10582 51.5634 9.13565C51.5634 12.2486 53.4107 14.1918 56.4341 14.1918ZM54.2544 8.10014C54.312 6.98153 55.1621 6.08665 56.3702 6.08665C57.5527 6.08665 58.3709 6.9304 58.3773 8.10014H54.2544Z" fill="#28B45B"/>
<path d="M-0.630859 17.6371H61.6309V19.3565H-0.630859V17.6371Z" fill="#28B45B"/>
<a href="https://keyicons.com/">
<rect fill="black" fill-opacity="0" x="0.369141" y="1.10795" width="62.2617" height="21.7841"/>
</a>
</svg>
