<svg width="32" height="32" viewBox="0 0 32 32" fill="none" xmlns="http://www.w3.org/2000/svg">
<g clip-path="url(#clip0_13581_26587)">
<path d="M11.2859 20.7138C8.68238 18.1104 8.68238 13.8893 11.2859 11.2858" stroke="#060606" stroke-width="1.5" stroke-linecap="round"/>
<path d="M7.51472 24.4849C2.82843 19.7985 2.82843 12.2006 7.51472 7.51428" stroke="#060606" stroke-width="1.5" stroke-linecap="round"/>
<path d="M20.7141 11.2385C23.3176 13.8421 23.3176 18.0632 20.7141 20.6666" stroke="#060606" stroke-width="1.5" stroke-linecap="round"/>
<path d="M24.4854 7.4292C29.1716 12.1155 29.1716 19.7135 24.4854 24.3998" stroke="#060606" stroke-width="1.5" stroke-linecap="round"/>
<path d="M16.0001 17.3333C16.7365 17.3333 17.3334 16.7363 17.3334 16C17.3334 15.2636 16.7365 14.6666 16.0001 14.6666C15.2637 14.6666 14.6667 15.2636 14.6667 16C14.6667 16.7363 15.2637 17.3333 16.0001 17.3333Z" stroke="#060606" stroke-width="1.5" stroke-linecap="round"/>
</g>
<defs>
<clipPath id="clip0_13581_26587">
<rect width="32" height="32" fill="white"/>
</clipPath>
</defs>
</svg>
