<svg width="32" height="32" viewBox="0 0 32 32" fill="none" xmlns="http://www.w3.org/2000/svg">
<g clip-path="url(#clip0_13581_26558)">
<path d="M8.66667 28C11.244 28 13.3333 25.9106 13.3333 23.3333C13.3333 20.756 11.244 18.6666 8.66667 18.6666C6.08934 18.6666 4 20.756 4 23.3333C4 25.9106 6.08934 28 8.66667 28Z" stroke="#060606" stroke-width="1.5" stroke-linecap="round"/>
<path d="M11.3333 19.3334L25.3333 5.33337" stroke="#060606" stroke-width="1.5" stroke-linecap="round"/>
<path d="M23.3333 28C20.756 28 18.6667 25.9106 18.6667 23.3333C18.6667 20.756 20.756 18.6666 23.3333 18.6666C25.9107 18.6666 28 20.756 28 23.3333C28 25.9106 25.9107 28 23.3333 28Z" stroke="#060606" stroke-width="1.5" stroke-linecap="round"/>
<path d="M20.0001 18.6667L6.66675 5.33337" stroke="#060606" stroke-width="1.5" stroke-linecap="round"/>
</g>
<defs>
<clipPath id="clip0_13581_26558">
<rect width="32" height="32" fill="white"/>
</clipPath>
</defs>
</svg>
