<svg width="32" height="32" viewBox="0 0 32 32" fill="none" xmlns="http://www.w3.org/2000/svg">
<g clip-path="url(#clip0_13581_26596)">
<path d="M16 20C18.2091 20 20 18.2091 20 16C20 13.7909 18.2091 12 16 12C13.7909 12 12 13.7909 12 16C12 18.2091 13.7909 20 16 20Z" stroke="#060606" stroke-width="1.5" stroke-linecap="round"/>
<path fill-rule="evenodd" clip-rule="evenodd" d="M13.4254 4.48371C14.2869 2.06093 17.7133 2.06093 18.5747 4.48369C19.1174 6.00943 20.8602 6.73132 22.3227 6.03613C24.645 4.9322 27.0678 7.35496 25.9639 9.67733C25.2687 11.1398 25.9906 12.8827 27.5163 13.4253C29.9391 14.2868 29.9391 17.7132 27.5163 18.5746C25.9906 19.1173 25.2687 20.8601 25.9639 22.3226C27.0678 24.6449 24.645 27.0677 22.3227 25.9638C20.8602 25.2686 19.1174 25.9905 18.5747 27.5162C17.7133 29.939 14.2869 29.939 13.4254 27.5162C12.8828 25.9905 11.14 25.2686 9.67746 25.9638C7.35508 27.0677 4.93232 24.6449 6.03626 22.3226C6.73144 20.8601 6.00955 19.1173 4.48382 18.5746C2.06106 17.7132 2.06106 14.2868 4.48383 13.4253C6.00955 12.8827 6.73144 11.1398 6.03626 9.67733C4.93232 7.35496 7.35508 4.9322 9.67746 6.03613C11.14 6.73132 12.8828 6.00943 13.4254 4.48371Z" stroke="#060606" stroke-width="1.5" stroke-linecap="round"/>
</g>
<defs>
<clipPath id="clip0_13581_26596">
<rect width="32" height="32" fill="white"/>
</clipPath>
</defs>
</svg>
