<svg width="32" height="32" viewBox="0 0 32 32" fill="none" xmlns="http://www.w3.org/2000/svg">
<g clip-path="url(#clip0_13581_26588)">
<path d="M3.33325 4.66663H6.0981C6.42564 4.66663 6.70465 4.90455 6.7564 5.22796L8.97402 19.0877C9.18101 20.3813 10.2971 21.333 11.6072 21.333H23.1942C24.4441 21.333 25.5262 20.4649 25.7974 19.2449L27.6394 10.9556C27.8245 10.1229 27.1909 9.33303 26.3378 9.33303H7.78655" stroke="#060606" stroke-width="1.5" stroke-linecap="round"/>
<path d="M12.6666 29.3333C13.403 29.3333 13.9999 28.7363 13.9999 28C13.9999 27.2636 13.403 26.6666 12.6666 26.6666C11.9302 26.6666 11.3333 27.2636 11.3333 28C11.3333 28.7363 11.9302 29.3333 12.6666 29.3333Z" stroke="#060606" stroke-width="1.5" stroke-linecap="round"/>
<path d="M22.0001 29.3333C22.7365 29.3333 23.3334 28.7363 23.3334 28C23.3334 27.2636 22.7365 26.6666 22.0001 26.6666C21.2637 26.6666 20.6667 27.2636 20.6667 28C20.6667 28.7363 21.2637 29.3333 22.0001 29.3333Z" stroke="#060606" stroke-width="1.5" stroke-linecap="round"/>
</g>
<defs>
<clipPath id="clip0_13581_26588">
<rect width="32" height="32" fill="white"/>
</clipPath>
</defs>
</svg>
