<svg width="32" height="32" viewBox="0 0 32 32" fill="none" xmlns="http://www.w3.org/2000/svg">
<g clip-path="url(#clip0_13581_26621)">
<path d="M4 8H6.66667C11.0849 8 14.6667 11.5817 14.6667 16C14.6667 20.4183 11.0849 24 6.66667 24H4" stroke="#060606" stroke-width="1.5" stroke-linecap="round"/>
<path d="M26.6667 8H22.6667C18.2485 8 14.6667 11.5817 14.6667 16C14.6667 20.4183 18.2485 24 22.6667 24H26.6667" stroke="#060606" stroke-width="1.5" stroke-linecap="round"/>
<path d="M24 4L27.0572 7.05719C27.5779 7.57789 27.5779 8.42211 27.0572 8.94281L24 12" stroke="#060606" stroke-width="1.5" stroke-linecap="round"/>
<path d="M24 20L27.0572 23.0572C27.5779 23.5779 27.5779 24.4221 27.0572 24.9428L24 28" stroke="#060606" stroke-width="1.5" stroke-linecap="round"/>
</g>
<defs>
<clipPath id="clip0_13581_26621">
<rect width="32" height="32" fill="white"/>
</clipPath>
</defs>
</svg>
