<svg width="32" height="32" viewBox="0 0 32 32" fill="none" xmlns="http://www.w3.org/2000/svg">
<g clip-path="url(#clip0_13581_26576)">
<path fill-rule="evenodd" clip-rule="evenodd" d="M15.4021 3.87797C15.6466 3.38247 16.3533 3.38247 16.5978 3.87797L19.7634 10.2922C19.8605 10.489 20.0482 10.6254 20.2654 10.6569L27.344 11.6855C27.8908 11.765 28.109 12.437 27.7134 12.8226L22.5913 17.8154C22.4342 17.9686 22.3625 18.1893 22.3996 18.4056L23.6088 25.4554C23.7021 26.0001 23.1305 26.4154 22.6414 26.1582L16.3102 22.8297C16.116 22.7276 15.884 22.7276 15.6897 22.8297L9.35849 26.1582C8.86941 26.4154 8.29778 26.0001 8.39119 25.4554L9.60035 18.4056C9.63745 18.1893 9.56575 17.9686 9.40862 17.8154L4.28653 12.8226C3.89085 12.437 4.10919 11.765 4.65601 11.6855L11.7346 10.6569C11.9517 10.6254 12.1394 10.489 12.2365 10.2922L15.4021 3.87797Z" stroke="#060606" stroke-width="1.5" stroke-linecap="round"/>
</g>
<defs>
<clipPath id="clip0_13581_26576">
<rect width="32" height="32" fill="white"/>
</clipPath>
</defs>
</svg>
