<svg width="32" height="32" viewBox="0 0 32 32" fill="none" xmlns="http://www.w3.org/2000/svg">
<g clip-path="url(#clip0_13581_26577)">
<path d="M9.33325 20C11.5424 20 13.3333 18.2091 13.3333 16C13.3333 13.7909 11.5424 12 9.33325 12C7.12411 12 5.33325 13.7909 5.33325 16C5.33325 18.2091 7.12411 20 9.33325 20Z" stroke="#060606" stroke-width="1.5" stroke-linecap="round"/>
<path d="M22.6667 12C24.8759 12 26.6667 10.2091 26.6667 8C26.6667 5.79086 24.8759 4 22.6667 4C20.4576 4 18.6667 5.79086 18.6667 8C18.6667 10.2091 20.4576 12 22.6667 12Z" stroke="#060606" stroke-width="1.5" stroke-linecap="round"/>
<path d="M22.6667 28C24.8759 28 26.6667 26.2091 26.6667 24C26.6667 21.7909 24.8759 20 22.6667 20C20.4576 20 18.6667 21.7909 18.6667 24C18.6667 26.2091 20.4576 28 22.6667 28Z" stroke="#060606" stroke-width="1.5" stroke-linecap="round"/>
<path d="M12.6667 14L19.3334 10" stroke="#060606" stroke-width="1.5"/>
<path d="M19.3334 22L12.6667 18" stroke="#060606" stroke-width="1.5"/>
</g>
<defs>
<clipPath id="clip0_13581_26577">
<rect width="32" height="32" fill="white"/>
</clipPath>
</defs>
</svg>
