<svg width="32" height="32" viewBox="0 0 32 32" fill="none" xmlns="http://www.w3.org/2000/svg">
<g clip-path="url(#clip0_13581_26604)">
<path d="M5.33325 16V25.3333C5.33325 26.8061 6.52716 28 7.99992 28H23.9999C25.4727 28 26.6666 26.8061 26.6666 25.3333V16" stroke="#060606" stroke-width="1.5" stroke-linecap="round"/>
<path fill-rule="evenodd" clip-rule="evenodd" d="M12 10.6666H20V12C20 14.2092 18.2092 16 16 16C13.7908 16 12 14.2092 12 12V10.6666Z" stroke="#060606" stroke-width="1.5" stroke-linecap="round"/>
<path fill-rule="evenodd" clip-rule="evenodd" d="M20 10.6666H27.4075C27.7347 10.6666 28 10.9319 28 11.2592V12C28 14.2092 26.2092 16 24 16C21.7908 16 20 14.2092 20 12V10.6666Z" stroke="#060606" stroke-width="1.5" stroke-linecap="round"/>
<path fill-rule="evenodd" clip-rule="evenodd" d="M4 11.2592C4 10.9319 4.26531 10.6666 4.59259 10.6666H12V12C12 14.2092 10.2091 16 8 16C5.79087 16 4 14.2092 4 12V11.2592Z" stroke="#060606" stroke-width="1.5" stroke-linecap="round"/>
<path fill-rule="evenodd" clip-rule="evenodd" d="M5.10135 4.54856C5.15851 4.23104 5.43484 4 5.75748 4H26.2428C26.5653 4 26.8417 4.23104 26.8989 4.54856L27.8589 9.88189C27.9325 10.2908 27.6182 10.6667 27.2028 10.6667H4.79748C4.38202 10.6667 4.06775 10.2908 4.14135 9.88189L5.10135 4.54856Z" stroke="#060606" stroke-width="1.5" stroke-linecap="round"/>
<path fill-rule="evenodd" clip-rule="evenodd" d="M12 21.3333C12 20.5969 12.597 20 13.3333 20H18.6667C19.4031 20 20 20.5969 20 21.3333V28H12V21.3333Z" stroke="#060606" stroke-width="1.5" stroke-linecap="round"/>
</g>
<defs>
<clipPath id="clip0_13581_26604">
<rect width="32" height="32" fill="white"/>
</clipPath>
</defs>
</svg>
