<svg width="32" height="32" viewBox="0 0 32 32" fill="none" xmlns="http://www.w3.org/2000/svg">
<g clip-path="url(#clip0_13581_26595)">
<path d="M5.33325 13.3334H26.6666" stroke="#060606" stroke-width="1.5" stroke-linecap="round"/>
<path d="M8 6.66663H24" stroke="#060606" stroke-width="1.5" stroke-linecap="round"/>
<path d="M23.9999 6.66663L27.5172 12.529C27.8068 13.0115 27.7623 13.6238 27.4059 14.0593L16.5159 27.3693C16.2491 27.6953 15.7507 27.6953 15.4839 27.3693L4.59388 14.0593C4.23756 13.6238 4.19299 13.0115 4.4825 12.529L7.9999 6.66663" stroke="#060606" stroke-width="1.5" stroke-linecap="round"/>
<path d="M12 13.3334L15.3615 26.5382C15.5515 27.1716 16.4485 27.1716 16.6385 26.5382L20 13.3334" stroke="#060606" stroke-width="1.5" stroke-linecap="round"/>
<path d="M12 13.3333L15.4284 7.61945C15.6873 7.18789 16.3127 7.18789 16.5716 7.61945L20 13.3333" stroke="#060606" stroke-width="1.5" stroke-linecap="round"/>
<path d="M20 13.3333L24 6.66663" stroke="#060606" stroke-width="1.5" stroke-linecap="round"/>
<path d="M12 13.3333L8 6.66663" stroke="#060606" stroke-width="1.5" stroke-linecap="round"/>
</g>
<defs>
<clipPath id="clip0_13581_26595">
<rect width="32" height="32" fill="white"/>
</clipPath>
</defs>
</svg>
