<svg width="32" height="32" viewBox="0 0 32 32" fill="none" xmlns="http://www.w3.org/2000/svg">
<path d="M10.6675 27.6699H7.26699C6.66574 27.6699 6.08913 27.431 5.66398 27.0059C5.23884 26.5807 5 26.0041 5 25.4029V17.4684C5 16.8672 5.23884 16.2906 5.66398 15.8654C6.08913 15.4403 6.66574 15.2014 7.26699 15.2014H10.6675M18.6019 12.9344V8.40048C18.6019 7.49862 18.2436 6.63369 17.6059 5.99598C16.9682 5.35826 16.1033 5 15.2014 5L10.6675 15.2014V27.6699H23.4533C24 27.676 24.5305 27.4844 24.9471 27.1303C25.3637 26.7762 25.6383 26.2835 25.7202 25.7429L27.2845 15.5415C27.3338 15.2166 27.3119 14.8848 27.2202 14.5692C27.1286 14.2536 26.9695 13.9617 26.7538 13.7137C26.5382 13.4658 26.2712 13.2676 25.9714 13.1331C25.6716 12.9985 25.3461 12.9307 25.0175 12.9344H18.6019Z" stroke="#060606" stroke-width="1.5" stroke-linecap="round" stroke-linejoin="round"/>
</svg>
