<svg width="32" height="32" viewBox="0 0 32 32" fill="none" xmlns="http://www.w3.org/2000/svg">
<path d="M21.6425 5.00041H24.6689C25.3104 4.98906 25.9337 5.21366 26.4206 5.63155C26.9074 6.04945 27.2239 6.63155 27.3099 7.26737V15.2017C27.2239 15.8375 26.9074 16.4196 26.4206 16.8375C25.9337 17.2554 25.3104 17.48 24.6689 17.4687H21.6425M13.7081 19.7356V24.2696C13.7081 25.1714 14.0664 26.0363 14.7041 26.674C15.3418 27.3117 16.2067 27.67 17.1086 27.67L21.6425 17.4687V5.00041H8.85683C8.31012 4.99423 7.7796 5.18584 7.36301 5.53994C6.94643 5.89404 6.67185 6.38676 6.58987 6.92732L5.02567 17.1286C4.97636 17.4535 4.99827 17.7853 5.08989 18.1009C5.18152 18.4165 5.34066 18.7084 5.5563 18.9564C5.77194 19.2043 6.03891 19.4025 6.33873 19.537C6.63854 19.6716 6.96403 19.7394 7.29263 19.7356H13.7081Z" stroke="#060606" stroke-width="1.5" stroke-linecap="round" stroke-linejoin="round"/>
</svg>
