<svg width="24" height="24" viewBox="0 0 24 24" fill="none" xmlns="http://www.w3.org/2000/svg">
<path d="M7.8258 21.0949C16.3164 21.0949 20.9604 14.0605 20.9604 7.96032C20.9604 7.76052 20.9604 7.56162 20.9469 7.36362C21.8503 6.71014 22.6302 5.90101 23.25 4.97412C22.4075 5.34744 21.5137 5.59227 20.5986 5.70042C21.5623 5.1235 22.2835 4.21612 22.6281 3.14712C21.7219 3.68483 20.7306 4.06378 19.6968 4.26762C19.0008 3.52754 18.0803 3.03747 17.0777 2.87326C16.0751 2.70905 15.0463 2.87985 14.1506 3.35923C13.2549 3.83861 12.5421 4.59985 12.1226 5.52513C11.7031 6.45042 11.6002 7.48818 11.8299 8.47782C9.99458 8.38581 8.19912 7.90887 6.56008 7.07795C4.92103 6.24704 3.47505 5.08072 2.316 3.65472C1.72568 4.67097 1.54488 5.874 1.81041 7.01887C2.07593 8.16374 2.76782 9.16436 3.7452 9.81702C3.01057 9.79525 2.29195 9.59707 1.65 9.23922C1.65 9.25812 1.65 9.27792 1.65 9.29772C1.65029 10.3635 2.01924 11.3964 2.69425 12.2212C3.36927 13.046 4.30881 13.6119 5.3535 13.8229C4.67388 14.0083 3.96082 14.0354 3.2691 13.9021C3.56408 14.8194 4.13838 15.6215 4.91166 16.1963C5.68495 16.7711 6.61855 17.0898 7.5819 17.1079C5.94726 18.3926 3.92795 19.09 1.8489 19.0879C1.48161 19.0872 1.11468 19.065 0.75 19.0213C2.86107 20.3761 5.31742 21.0947 7.8258 21.0913" fill="#1DA1F2"/>
</svg>
