<svg width="32" height="32" viewBox="0 0 32 32" fill="none" xmlns="http://www.w3.org/2000/svg">
<g clip-path="url(#clip0_13581_26599)">
<path fill-rule="evenodd" clip-rule="evenodd" d="M12.0001 14.6667C13.841 14.6667 15.3334 13.1743 15.3334 11.3333C15.3334 9.49238 13.841 8 12.0001 8C10.1591 8 8.66675 9.49238 8.66675 11.3333C8.66675 13.1743 10.1591 14.6667 12.0001 14.6667Z" stroke="#060606" stroke-width="1.5" stroke-linecap="round"/>
<path d="M4 26.6666C4 22.2483 7.58172 18.6666 12 18.6666C16.4183 18.6666 20 22.2483 20 26.6666" stroke="#060606" stroke-width="1.5" stroke-linecap="round"/>
<path d="M20 14.6667C21.8409 14.6667 23.3333 13.1743 23.3333 11.3333C23.3333 9.49238 21.8409 8 20 8" stroke="#060606" stroke-width="1.5" stroke-linecap="round"/>
<path d="M21.5127 18.8094C25.2078 19.5165 28.0002 22.7655 28.0002 26.6667" stroke="#060606" stroke-width="1.5" stroke-linecap="round"/>
</g>
<defs>
<clipPath id="clip0_13581_26599">
<rect width="32" height="32" fill="white"/>
</clipPath>
</defs>
</svg>
