<svg width="32" height="32" viewBox="0 0 32 32" fill="none" xmlns="http://www.w3.org/2000/svg">
<g clip-path="url(#clip0_13581_26619)">
<path fill-rule="evenodd" clip-rule="evenodd" d="M20 16C20 15.1828 20.4617 14.4359 21.1925 14.0704L26.0704 11.6315C26.9569 11.1882 28 11.8329 28 12.8241V19.176C28 20.1671 26.9569 20.8118 26.0704 20.3686L21.1925 17.9296C20.4617 17.5642 20 16.8172 20 16Z" stroke="#060606" stroke-width="1.5" stroke-linecap="round"/>
<path d="M17.3333 8H6.66667C5.19391 8 4 9.19391 4 10.6667V21.3333C4 22.8061 5.19391 24 6.66667 24H17.3333C18.8061 24 20 22.8061 20 21.3333V10.6667C20 9.19391 18.8061 8 17.3333 8Z" stroke="#060606" stroke-width="1.5" stroke-linecap="round"/>
</g>
<defs>
<clipPath id="clip0_13581_26619">
<rect width="32" height="32" fill="white"/>
</clipPath>
</defs>
</svg>
