<svg width="32" height="32" viewBox="0 0 32 32" fill="none" xmlns="http://www.w3.org/2000/svg">
<g clip-path="url(#clip0_13581_26580)">
<path fill-rule="evenodd" clip-rule="evenodd" d="M5.33325 14.6667C5.33325 13.1939 6.52716 12 7.99992 12H9.77769C10.3547 12 10.9161 11.8129 11.3777 11.4667L13.8666 9.60002C14.7455 8.94078 15.9999 9.56796 15.9999 10.6667V21.3334C15.9999 22.432 14.7455 23.0592 13.8666 22.4L11.3777 20.5334C10.9161 20.1872 10.3547 20 9.77769 20H7.99992C6.52716 20 5.33325 18.8062 5.33325 17.3334V14.6667Z" stroke="#060606" stroke-width="1.5" stroke-linecap="round"/>
<path d="M16 17.3333C16.7364 17.3333 17.3333 16.7364 17.3333 16C17.3333 15.2636 16.7364 14.6666 16 14.6666" stroke="#060606" stroke-width="1.5" stroke-linecap="round"/>
<path d="M20.7139 20.533C23.3173 17.9295 23.3173 13.7083 20.7139 11.1049" stroke="#060606" stroke-width="1.5" stroke-linecap="round"/>
<path d="M24.4854 24.3039C29.1716 19.6176 29.1716 12.0197 24.4854 7.33337" stroke="#060606" stroke-width="1.5" stroke-linecap="round"/>
</g>
<defs>
<clipPath id="clip0_13581_26580">
<rect width="32" height="32" fill="white"/>
</clipPath>
</defs>
</svg>
