<svg width="327" height="300" viewBox="0 0 327 300" fill="none" xmlns="http://www.w3.org/2000/svg">
<path d="M164.35 299.417C237.975 299.417 297.66 239.887 297.66 166.454C297.66 93.0214 237.975 33.4922 164.35 33.4922C90.7242 33.4922 31.0391 93.0214 31.0391 166.454C31.0391 239.887 90.7242 299.417 164.35 299.417Z" fill="#FADDC6"/>
<path d="M250.4 233.463L257.645 214.146C258.091 212.924 257.2 211.645 255.918 211.645H226.463V233.463H250.4Z" fill="#FFC397"/>
<path d="M250.4 233.462L247.865 247.47H228.024L230.616 232.962L250.4 233.462Z" fill="#FFC397"/>
<path d="M188.203 108.477C188.203 108.477 195.588 99.8887 190.655 89.1605C186.865 80.8782 174.967 76.6814 164.796 78.7103C164.796 78.7103 127.483 67.7042 110.931 103.807" fill="#060615"/>
<path d="M181.6 137.354L198.626 132.518C198.096 128.154 196.954 123.346 195.142 117.954L192.523 111.867C181.683 86.7979 152.508 75.236 127.373 86.0475C123.527 87.6873 119.96 90.5222 116.839 94.0519C104.996 107.532 105.442 132.323 113.245 143.857C113.245 143.857 120.768 155.308 134.367 169.76C135.955 171.456 136.903 173.679 136.986 175.986L137.878 199.388L173.156 198.832L171.066 191.828C166.301 163.368 178.646 168.899 187.117 161.978C193.916 156.42 197.929 149.972 198.765 141.439C186.838 143.69 181.6 137.354 181.6 137.354Z" fill="#FFC397"/>
<path d="M199.852 124.458L195.56 125.736C194.223 126.153 192.802 125.375 192.384 124.041L191.743 121.956C191.325 120.622 192.105 119.205 193.442 118.788L197.734 117.51C199.657 116.926 201.691 118.01 202.276 119.928C202.861 121.845 201.774 123.874 199.852 124.458Z" fill="#ECA979"/>
<path d="M125.951 85.8808C123.36 87.5205 119.932 90.5222 116.839 94.0519C104.996 107.532 105.442 132.323 113.245 143.857C113.245 143.857 120.768 155.308 134.367 169.76C135.147 170.594 135.76 171.539 136.206 172.567C136.206 172.567 154.096 169.621 154.096 158.588C154.096 149.305 144.482 144.913 143.033 143.385C138.742 138.882 140.079 129.071 145.151 126.431C150.223 123.763 153.901 126.625 155.322 129.711C156.743 132.768 169.673 130.739 168.642 117.454C167.611 104.169 159.223 100.5 155.517 98.6378C151.839 96.8035 151.254 95.525 155.712 96.9146C162.539 99.0547 164.741 93.6072 164.769 91.3282C164.852 88.1042 171.066 88.6879 176.472 91.7729C163.347 80.739 139.912 77.0703 125.951 85.8808Z" fill="#060615"/>
<path d="M184.275 115.786C185.783 115.786 187.006 114.567 187.006 113.063C187.006 111.558 185.783 110.339 184.275 110.339C182.767 110.339 181.544 111.558 181.544 113.063C181.544 114.567 182.767 115.786 184.275 115.786Z" fill="#060615"/>
<path d="M234.405 192.829C235.492 190.911 238.056 190.244 240.285 191.356L251.571 196.942C253.828 198.054 254.748 200.583 253.633 202.584C252.518 204.585 249.787 205.308 247.53 204.196L236.663 198.804C234.294 197.637 233.263 194.913 234.405 192.829Z" fill="#F7A468"/>
<path d="M254.691 217.287C252.546 217.815 250.317 216.37 249.62 214.007L246.053 201.945C245.356 199.527 246.583 197.137 248.812 196.609C251.041 196.053 253.438 197.582 254.134 199.972L257.562 211.589C258.314 214.119 257.004 216.731 254.691 217.287Z" fill="#FFC397"/>
<path d="M246.36 217.343C244.214 217.871 241.985 216.425 241.288 214.063L237.722 202.001C237.025 199.583 238.251 197.193 240.48 196.665C242.71 196.109 245.106 197.637 245.803 200.028L249.23 211.645C249.982 214.174 248.673 216.787 246.36 217.343Z" fill="#FFC397"/>
<path d="M238.807 231.072L220.081 228.737C218.047 228.487 216.821 226.625 217.295 224.596L225.933 188.548C226.379 186.686 228.246 185.38 230.085 185.602L249.396 188.02C251.263 188.243 252.378 189.938 251.932 191.8L243.294 227.848C242.848 229.877 240.814 231.322 238.807 231.072Z" fill="#3E3E40"/>
<path d="M239.839 231.1L221.113 228.765C219.079 228.515 217.853 226.653 218.326 224.624L226.965 188.576C227.411 186.714 229.278 185.408 231.117 185.63L250.428 188.048C252.295 188.27 253.41 189.966 252.964 191.828L244.325 227.876C243.907 229.932 241.873 231.35 239.839 231.1Z" fill="#060615"/>
<path d="M218.437 219.927L244.464 223.179L251.514 193.829L225.459 190.578L218.437 219.927Z" fill="#28B45B"/>
<path fill-rule="evenodd" clip-rule="evenodd" d="M228.751 225.221L228.53 226.134C228.37 226.87 228.801 227.5 229.508 227.588C229.509 227.588 229.509 227.589 229.509 227.589L230.43 227.7C231.135 227.791 231.898 227.259 232.089 226.5L232.311 225.587C232.471 224.852 232.039 224.221 231.332 224.133C231.332 224.133 231.332 224.133 231.332 224.133L230.417 224.022C229.672 223.955 228.94 224.47 228.751 225.221ZM228.188 225.082C228.445 224.056 229.438 223.349 230.475 223.446L230.479 223.447L231.404 223.559C232.479 223.693 233.106 224.673 232.877 225.714L232.877 225.717L232.652 226.64C232.397 227.659 231.378 228.405 230.356 228.274L229.438 228.163L229.437 228.163C228.362 228.029 227.735 227.049 227.963 226.007L227.964 226.004L228.188 225.082Z" fill="white"/>
<path d="M252.378 222.984L245.412 227.181L238.027 216.453C236.94 214.869 237.609 212.645 239.532 211.478C241.455 210.311 243.907 210.672 244.994 212.256L252.378 222.984Z" fill="#FFC397"/>
<path d="M248.004 300H212.948L220.528 239.243H255.555L248.004 300Z" fill="#361C80"/>
<path d="M183.132 187.131H122.273V201.639H183.132V187.131Z" fill="#361C80"/>
<path d="M193.442 194.774H133.391C107.281 194.774 87.5516 218.371 92.2609 243.996L102.906 299.972H247.976L234.572 228.96C230.95 209.171 213.645 194.774 193.442 194.774Z" fill="#361C80"/>
<path d="M34.5227 227.125C53.0367 227.125 68.0454 212.156 68.0454 193.69C68.0454 175.224 53.0367 160.255 34.5227 160.255C16.0086 160.255 1 175.224 1 193.69C1 212.156 16.0086 227.125 34.5227 227.125Z" fill="#28B45B"/>
<path d="M162.523 66.8702C181.037 66.8702 196.045 51.9008 196.045 33.4351C196.045 14.9694 181.037 0 162.523 0C144.009 0 129 14.9694 129 33.4351C129 51.9008 144.009 66.8702 162.523 66.8702Z" fill="#813EB7"/>
<path fill-rule="evenodd" clip-rule="evenodd" d="M151.903 17.9031C152.481 17.3249 153.266 17 154.083 17C156.458 17 158.128 18.6742 159.3 20.8062C159.752 21.6284 160.095 22.4595 160.343 23.1667H154.083C153.266 23.1667 152.481 22.8418 151.903 22.2636C151.325 21.6853 151 20.9011 151 20.0833C151 19.2656 151.325 18.4813 151.903 17.9031ZM162.738 19.3605C162.593 19.6233 162.459 19.8856 162.333 20.1445C162.208 19.8856 162.073 19.6233 161.929 19.3605C160.581 16.9092 158.126 14 154.083 14C152.47 14 150.923 14.6409 149.782 15.7818C148.641 16.9226 148 18.4699 148 20.0833C148 21.6967 148.641 23.2441 149.782 24.3849C149.879 24.4825 149.98 24.5764 150.083 24.6666H146C144.895 24.6666 144 25.5621 144 26.6666V31.8333C144 32.9379 144.895 33.8333 146 33.8333H178.667C179.771 33.8333 180.667 32.9379 180.667 31.8333V26.6666C180.667 25.5621 179.771 24.6666 178.667 24.6666H174.584C174.687 24.5764 174.787 24.4825 174.885 24.3849C176.026 23.2441 176.667 21.6967 176.667 20.0833C176.667 18.4699 176.026 16.9226 174.885 15.7818C173.744 14.6409 172.197 14 170.584 14C166.541 14 164.086 16.9092 162.738 19.3605ZM164.324 23.1667H170.584C171.401 23.1667 172.186 22.8418 172.764 22.2636C173.342 21.6853 173.667 20.9011 173.667 20.0833C173.667 19.2656 173.342 18.4813 172.764 17.9031C172.186 17.3249 171.401 17 170.584 17C168.209 17 166.539 18.6742 165.367 20.8062C164.914 21.6284 164.572 22.4595 164.324 23.1667ZM147.667 50.1666V35.8333H177V50.1666C177 51.2712 176.105 52.1666 175 52.1666H149.667C148.562 52.1666 147.667 51.2712 147.667 50.1666Z" fill="#F6ECFF"/>
<path d="M292.478 218.482C310.992 218.482 326 203.512 326 185.046C326 166.581 310.992 151.611 292.478 151.611C273.964 151.611 258.955 166.581 258.955 185.046C258.955 203.512 273.964 218.482 292.478 218.482Z" fill="#007BFE"/>
<path d="M55.4785 127.515C73.9926 127.515 89.0012 112.545 89.0012 94.0796C89.0012 75.6139 73.9926 60.6445 55.4785 60.6445C36.9644 60.6445 21.9558 75.6139 21.9558 94.0796C21.9558 112.545 36.9644 127.515 55.4785 127.515Z" fill="#FF594D"/>
<path d="M261.434 121.234C279.948 121.234 294.957 106.264 294.957 87.7984C294.957 69.3327 279.948 54.3633 261.434 54.3633C242.92 54.3633 227.911 69.3327 227.911 87.7984C227.911 106.264 242.92 121.234 261.434 121.234Z" fill="#FFA620"/>
<path d="M244.687 85.1859C243.74 84.7968 242.876 84.2131 242.124 83.4627C241.343 82.6845 240.786 81.8507 240.396 80.9335C240.006 80.0164 239.811 79.0158 239.811 77.9597C239.811 77.1814 239.922 76.431 240.145 75.7084C240.368 74.9858 240.702 74.291 241.176 73.6239C241.622 72.9569 242.152 72.401 242.765 71.9008C243.378 71.4005 244.046 70.9836 244.827 70.6779C245.05 70.5667 245.3 70.4555 245.523 70.3721C245.746 70.2888 246.025 70.2332 246.276 70.2054C246.526 70.1498 246.777 70.122 247.056 70.0942C247.307 70.0942 247.558 70.0664 247.836 70.0664C247.975 70.0664 248.115 70.0664 248.226 70.0942C248.338 70.122 248.477 70.122 248.616 70.122C248.728 70.1498 248.839 70.1776 248.979 70.1776C249.118 70.2054 249.229 70.2054 249.341 70.2332C249.592 70.261 249.843 70.3165 250.093 70.3999C250.344 70.4833 250.567 70.5667 250.79 70.6501C251.57 70.9558 252.239 71.3727 252.852 71.873C253.437 72.3732 253.967 72.9569 254.385 73.5961C254.803 74.291 255.137 74.9858 255.36 75.6806C255.583 76.4032 255.694 77.1259 255.694 77.8485C255.694 77.9041 255.694 77.9597 255.694 78.043C255.694 78.1264 255.694 78.182 255.694 78.2376C255.666 78.2932 255.639 78.3488 255.639 78.4321C255.639 78.5155 255.639 78.5711 255.639 78.6267C255.639 78.6823 255.639 78.7379 255.611 78.7935C255.583 78.849 255.583 78.9046 255.583 78.9602C255.555 79.0436 255.527 79.127 255.527 79.1826C255.527 79.2381 255.527 79.2937 255.527 79.3493C255.499 79.4049 255.471 79.4605 255.471 79.5439C255.444 79.6272 255.444 79.6828 255.444 79.7384C255.416 79.794 255.388 79.8496 255.388 79.933C255.36 80.0163 255.36 80.0719 255.332 80.1275C255.304 80.1831 255.276 80.2387 255.276 80.2943C255.248 80.3499 255.248 80.4055 255.221 80.461C255.193 80.5444 255.165 80.6278 255.165 80.6834C255.137 80.739 255.137 80.7946 255.109 80.8501C254.998 81.0725 254.886 81.2948 254.747 81.5172C254.608 81.7395 254.496 81.9619 254.329 82.1842C254.19 82.3788 254.022 82.6011 253.855 82.7957C253.688 83.018 253.521 83.2126 253.354 83.3793C252.991 83.7406 252.573 84.0741 252.155 84.3521C251.737 84.63 251.264 84.8524 250.79 85.0469C250.344 85.2415 249.843 85.4082 249.369 85.5194C248.867 85.6306 248.366 85.6862 247.836 85.6862V85.6306C246.666 85.7417 245.635 85.575 244.687 85.1859ZM271.661 104.53C271.048 104.057 270.547 103.474 270.073 102.835C269.627 102.167 269.293 101.5 269.07 100.778C268.847 100.055 268.736 99.3326 268.736 98.5544C268.736 97.7762 268.847 97.0257 269.07 96.3031C269.293 95.5805 269.627 94.8857 270.101 94.2464C270.547 93.5794 271.076 93.0235 271.689 92.5511C272.275 92.0786 272.971 91.7173 273.696 91.4115C273.835 91.356 274.002 91.3004 274.142 91.2448C274.309 91.1892 274.476 91.1336 274.643 91.1058C274.727 91.078 274.81 91.0502 274.894 91.0502C274.978 91.0502 275.061 91.0224 275.145 90.9946C275.228 90.9946 275.312 90.9946 275.396 90.9669C275.479 90.9669 275.563 90.9391 275.646 90.9113C275.702 90.9113 275.758 90.9113 275.786 90.9113C275.814 90.9113 275.869 90.9113 275.925 90.9113C275.953 90.9113 275.981 90.9113 276.036 90.9113C276.092 90.9113 276.12 90.9113 276.148 90.9113C276.204 90.9113 276.259 90.9113 276.287 90.9113C276.343 90.9113 276.371 90.9113 276.399 90.8557C276.454 90.8557 276.51 90.8557 276.538 90.8557C276.566 90.8557 276.622 90.8557 276.649 90.8557C276.9 90.8557 277.151 90.8557 277.43 90.8835C277.681 90.9113 277.931 90.9391 278.21 90.9946C278.461 91.0224 278.712 91.078 278.962 91.1614C279.213 91.2448 279.436 91.356 279.659 91.4671C280.411 91.7728 281.052 92.1897 281.637 92.69C282.223 93.1903 282.724 93.774 283.17 94.4132C283.56 95.0802 283.867 95.7473 284.09 96.4421C284.313 97.1369 284.424 97.8595 284.424 98.61C284.424 98.6378 284.424 98.6655 284.424 98.7211C284.424 98.7767 284.424 98.8045 284.424 98.8601C284.424 98.8879 284.424 98.9157 284.424 98.9713C284.424 99.0269 284.424 99.0547 284.424 99.1102C284.396 99.5549 284.313 99.9996 284.201 100.444C284.062 100.861 283.922 101.306 283.755 101.723C283.588 102.14 283.365 102.557 283.086 102.946C282.808 103.335 282.501 103.696 282.167 104.03C281.805 104.391 281.387 104.724 280.941 105.002C280.495 105.28 280.021 105.503 279.548 105.642C279.074 105.836 278.572 106.003 278.071 106.086C277.569 106.197 277.067 106.225 276.538 106.225C276.482 106.225 276.427 106.225 276.371 106.225C276.315 106.225 276.259 106.225 276.204 106.225C276.12 106.197 276.036 106.17 275.981 106.17C275.925 106.17 275.869 106.17 275.814 106.17C275.702 106.142 275.591 106.114 275.479 106.114C275.368 106.086 275.256 106.086 275.145 106.059C275.033 106.031 274.922 106.003 274.782 106.003C274.643 105.975 274.532 105.947 274.364 105.892C274.253 105.864 274.142 105.836 274.03 105.781C273.919 105.725 273.807 105.697 273.696 105.642V105.697C272.943 105.391 272.275 105.002 271.661 104.53Z" fill="#FFEED6"/>
<path d="M249.341 101.055C249.341 101.055 249.341 101.028 249.341 101C249.313 101 249.285 101 249.285 100.972C249.285 100.972 249.285 100.944 249.285 100.917C249.285 100.889 249.285 100.861 249.285 100.805C249.285 100.75 249.285 100.722 249.285 100.694C249.285 100.666 249.285 100.639 249.285 100.611C249.285 100.583 249.285 100.555 249.285 100.527C249.285 100.5 249.285 100.472 249.285 100.444C249.285 100.416 249.285 100.388 249.285 100.361C249.285 100.166 249.313 99.9715 249.341 99.7492C249.369 99.5546 249.424 99.3601 249.48 99.1655C249.536 98.971 249.62 98.7764 249.703 98.5819C249.815 98.3873 249.898 98.2206 250.038 98.0538L266.729 74.0128C266.924 73.7626 267.147 73.5125 267.426 73.3179C267.705 73.1234 267.955 72.9288 268.234 72.7899C268.541 72.6509 268.875 72.5397 269.181 72.4563C269.488 72.373 269.822 72.3174 270.129 72.3174C270.324 72.3174 270.519 72.3452 270.714 72.373C270.909 72.4008 271.104 72.4564 271.299 72.5119C271.383 72.5397 271.466 72.5675 271.55 72.6231C271.634 72.6787 271.745 72.7065 271.857 72.7343C271.94 72.7899 272.024 72.8455 272.107 72.8732C272.191 72.9288 272.275 72.9566 272.358 73.0122C272.637 73.2068 272.888 73.4291 273.111 73.6514C273.333 73.8738 273.501 74.1517 273.64 74.4575C273.779 74.7354 273.891 75.0411 273.974 75.3468C274.058 75.6526 274.086 75.9583 274.086 76.264C274.086 76.4586 274.058 76.6531 274.03 76.8477C274.002 77.0422 273.946 77.209 273.891 77.3757C273.835 77.5703 273.751 77.7648 273.668 77.9316C273.584 78.0984 273.473 78.2651 273.361 78.4319L256.586 102.417C256.447 102.667 256.279 102.89 256.084 103.084C255.889 103.279 255.666 103.446 255.444 103.585C255.221 103.696 254.97 103.807 254.719 103.918C254.468 104.029 254.217 104.085 253.939 104.141C253.911 104.141 253.883 104.141 253.855 104.141C253.827 104.141 253.799 104.168 253.772 104.196C253.716 104.196 253.66 104.196 253.632 104.196C253.604 104.196 253.577 104.196 253.549 104.196C253.521 104.196 253.493 104.196 253.465 104.196C253.437 104.196 253.409 104.224 253.381 104.252C253.326 104.252 253.27 104.252 253.242 104.252C253.214 104.252 253.186 104.252 253.159 104.252C252.713 104.252 252.267 104.168 251.849 104.029C251.431 103.89 251.041 103.696 250.678 103.446C250.316 103.14 250.01 102.779 249.815 102.39C249.564 101.973 249.424 101.528 249.341 101.055C249.341 101.083 249.341 101.083 249.341 101.055Z" fill="#FFEED6"/>
<path d="M306.745 176.431C306.745 169.01 300.726 163.007 293.286 163.007C285.845 163.007 279.826 169.01 279.826 176.431C279.826 181.823 286.291 195.858 290.499 203.112C292.087 205.836 292.394 207.615 293.286 207.615C294.01 207.615 295.208 206.142 296.602 203.779C300.809 196.748 306.745 181.99 306.745 176.431Z" fill="#E2F0FF"/>
<path d="M293.118 181.878C295.935 181.878 298.218 179.601 298.218 176.792C298.218 173.983 295.935 171.706 293.118 171.706C290.302 171.706 288.019 173.983 288.019 176.792C288.019 179.601 290.302 181.878 293.118 181.878Z" fill="#007BFE"/>
<path d="M45.808 114.758H45.1392C43.8295 114.758 42.7706 113.702 42.7706 112.395V92.6344C42.7706 91.3281 43.8295 90.272 45.1392 90.272H45.808C47.1177 90.272 48.1766 91.3281 48.1766 92.6344V112.395C48.1766 113.702 47.1177 114.758 45.808 114.758Z" fill="#FFDDDB"/>
<path d="M45.4181 93.9687C41.6005 93.9687 38.4795 90.8837 38.4795 87.0482V81.6842C38.4795 77.8765 41.5726 74.7637 45.4181 74.7637C49.2357 74.7637 52.3567 77.8487 52.3567 81.6842V87.0482C52.3289 90.8837 49.2357 93.9687 45.4181 93.9687Z" fill="#FFDDDB"/>
<path d="M64.0601 114.758H63.3913C62.0816 114.758 61.0227 113.702 61.0227 112.396V92.6349C61.0227 91.3286 62.0816 90.2725 63.3913 90.2725H64.0601C65.3698 90.2725 66.4287 91.3286 66.4287 92.6349V112.396C66.4287 113.702 65.3698 114.758 64.0601 114.758Z" fill="#FFDDDB"/>
<path d="M70.6089 85.6587V87.0483C70.6089 90.856 67.5158 93.9688 63.6703 93.9688C59.8527 93.9688 56.7317 90.8838 56.7317 87.0483V85.6587" fill="#FFDDDB"/>
<path d="M58.4594 75.4585C57.5119 75.4585 56.7317 76.2367 56.7317 77.1817V86.9649H60.1592V77.1817C60.1871 76.2089 59.4068 75.4585 58.4594 75.4585Z" fill="#FFDDDB"/>
<path d="M63.9762 75.4585C63.0288 75.4585 62.2485 76.2367 62.2485 77.1817V86.9649H65.676V77.1817C65.7039 76.2089 64.9237 75.4585 63.9762 75.4585Z" fill="#FFDDDB"/>
<path d="M68.8809 75.4585C67.9334 75.4585 67.1532 76.2367 67.1532 77.1817V86.9649H70.5807V77.1817C70.5807 76.2089 69.8283 75.4585 68.8809 75.4585Z" fill="#FFDDDB"/>
<path fill-rule="evenodd" clip-rule="evenodd" d="M33.3446 208.159C32.6997 208.875 31.7692 209.416 30.4742 209.646L30.4729 209.646C28.0728 210.066 26.5306 209.046 25.6211 207.922C25.1756 207.372 24.883 206.8 24.702 206.371C24.6109 206.155 24.5468 205.971 24.5048 205.84C24.4838 205.774 24.4682 205.72 24.4576 205.682C24.4523 205.663 24.4482 205.648 24.4452 205.637L24.4417 205.623L24.4405 205.618L24.4401 205.617L24.4399 205.616C24.4399 205.616 24.4398 205.615 25.0196 205.474C25.5994 205.334 25.5994 205.333 25.5993 205.333L25.5991 205.332L25.6003 205.337C25.6017 205.342 25.604 205.351 25.6075 205.363C25.6145 205.388 25.6259 205.428 25.6422 205.479C25.6749 205.581 25.727 205.731 25.8023 205.91C25.9539 206.269 26.1943 206.735 26.5499 207.175C27.2426 208.031 28.3753 208.804 30.2661 208.474C31.3254 208.286 32.0075 207.862 32.4571 207.363C32.9133 206.857 33.1656 206.234 33.2922 205.601C33.4191 204.967 33.4148 204.347 33.3763 203.879C33.3572 203.647 33.33 203.456 33.3081 203.326C33.2971 203.26 33.2875 203.21 33.2809 203.178C33.2776 203.162 33.2751 203.15 33.2735 203.143L33.272 203.136C33.272 203.136 33.272 203.136 33.8531 203.001C34.4342 202.865 34.4342 202.865 34.4343 202.866L34.4349 202.868L34.436 202.873L34.4394 202.889C34.4422 202.901 34.446 202.919 34.4506 202.941C34.4596 202.986 34.4718 203.049 34.4851 203.128C34.5118 203.287 34.5436 203.511 34.5659 203.782C34.6101 204.319 34.6181 205.058 34.4627 205.834C34.3072 206.611 33.9831 207.451 33.3446 208.159Z" fill="#CCFFDF"/>
<path d="M44.6929 174.346L56.926 196.831C57.7341 198.304 56.8703 200.138 55.1983 200.444L23.069 206.558L19.1677 198.304L40.6523 173.929C41.7948 172.595 43.8848 172.845 44.6929 174.346Z" fill="#CCFFDF"/>
<path d="M19.168 198.276L14.0406 198.832C13.344 198.915 12.8981 199.61 13.1489 200.277L16.4092 209.171C16.6322 209.81 17.4124 210.088 17.9976 209.727L23.0692 206.558L19.168 198.276Z" fill="#CCFFDF"/>
</svg>
