<svg width="77" height="104" viewBox="0 0 77 104" fill="none" xmlns="http://www.w3.org/2000/svg">
<path d="M73.5843 72.3019L76.9408 63.3683C77.1473 62.8027 76.7342 62.2114 76.1404 62.2114H62.4951V72.3019H73.5843Z" fill="#FFC397"/>
<path d="M73.5841 72.3017L72.4093 78.7801H63.2178L64.4184 72.0703L73.5841 72.3017Z" fill="#FFC397"/>
<path d="M44.7698 14.497C44.7698 14.497 48.1908 10.5251 45.9058 5.5634C44.1501 1.73288 38.6378 -0.208086 33.9259 0.730262C33.9259 0.730262 16.6401 -4.35996 8.97192 12.3375" fill="#060615"/>
<path d="M41.71 27.8523L49.5976 25.6157C49.3524 23.5976 48.8231 21.3738 47.984 18.8802L46.7705 16.0651C41.7487 4.47072 28.2325 -0.876579 16.5882 4.12366C14.8067 4.88205 13.1543 6.19317 11.7085 7.82564C6.22195 14.0599 6.4285 25.5257 10.0431 30.8602C10.0431 30.8602 13.5287 36.156 19.8285 42.8402C20.5643 43.6243 21.0032 44.6526 21.042 45.7195L21.4551 56.5426L37.7984 56.2855L36.8302 53.0463C34.6227 39.8837 40.3416 42.4417 44.266 39.241C47.4159 36.6702 49.2749 33.6881 49.6622 29.7419C44.1369 30.783 41.71 27.8523 41.71 27.8523Z" fill="#FFC397"/>
<path d="M50.1648 21.8882L48.1768 22.4794C47.5571 22.6723 46.8988 22.3123 46.7051 21.6953L46.4082 20.7313C46.2146 20.1143 46.576 19.4587 47.1957 19.2659L49.1837 18.6746C50.0745 18.4047 51.0169 18.906 51.288 19.7929C51.5591 20.6799 51.0556 21.6182 50.1648 21.8882Z" fill="#FFC397"/>
<path d="M15.9298 4.04689C14.7293 4.80528 13.1414 6.19353 11.7085 7.826C6.22195 14.0602 6.4285 25.5261 10.0431 30.8605C10.0431 30.8605 13.5287 36.1564 19.8285 42.8405C20.19 43.2261 20.474 43.6632 20.6805 44.1388C20.6805 44.1388 28.9684 42.7763 28.9684 37.6732C28.9684 33.3799 24.5146 31.349 23.8433 30.642C21.8553 28.5596 22.4749 24.0221 24.8244 22.801C27.174 21.567 28.878 22.891 29.5364 24.3178C30.1948 25.7317 36.1847 24.7934 35.7071 18.6491C35.2294 12.5049 31.3437 10.8081 29.6268 9.94692C27.9227 9.09855 27.6516 8.50726 29.7171 9.14997C32.8799 10.1397 33.8998 7.62033 33.9127 6.56629C33.9514 5.07522 36.8302 5.34516 39.3346 6.77196C33.2543 1.66889 22.3975 -0.0278517 15.9298 4.04689Z" fill="#060615"/>
<path d="M42.9491 17.8778C43.6478 17.8778 44.2142 17.3138 44.2142 16.6181C44.2142 15.9224 43.6478 15.3584 42.9491 15.3584C42.2504 15.3584 41.684 15.9224 41.684 16.6181C41.684 17.3138 42.2504 17.8778 42.9491 17.8778Z" fill="#060615"/>
<path d="M66.1743 53.5089C66.6778 52.622 67.8654 52.3135 68.8982 52.8277L74.1265 55.4113C75.1722 55.9255 75.5982 57.0952 75.0818 58.0207C74.5654 58.9462 73.3003 59.2804 72.2546 58.7662L67.22 56.2725C66.1227 55.7327 65.645 54.473 66.1743 53.5089Z" fill="#F7A468"/>
<path d="M75.5718 64.8204C74.5778 65.0646 73.545 64.3962 73.2223 63.3036L71.5699 57.7249C71.2472 56.6066 71.8152 55.5012 72.8479 55.2569C73.8807 54.9999 74.9909 55.7068 75.3136 56.8123L76.9015 62.1853C77.2501 63.355 76.6433 64.5633 75.5718 64.8204Z" fill="#FFC397"/>
<path d="M71.7125 64.8463C70.7184 65.0905 69.6857 64.4221 69.3629 63.3295L67.7105 57.7508C67.3878 56.6325 67.9558 55.5271 68.9886 55.2828C70.0213 55.0257 71.1315 55.7327 71.4543 56.8382L73.0421 62.2112C73.3907 63.3809 72.7839 64.5892 71.7125 64.8463Z" fill="#FFC397"/>
<path d="M68.2143 71.1964L59.5392 70.1167C58.5968 70.001 58.0288 69.1398 58.2482 68.2014L62.2502 51.5297C62.4567 50.6685 63.3216 50.0643 64.1737 50.1672L73.1199 51.2855C73.9848 51.3883 74.5012 52.1724 74.2947 53.0336L70.2927 69.7054C70.0862 70.6437 69.1438 71.3121 68.2143 71.1964Z" fill="#3E3E40"/>
<path d="M68.6919 71.2091L60.0167 70.1294C59.0743 70.0137 58.5063 69.1525 58.7258 68.2141L62.7277 51.5424C62.9342 50.6812 63.7992 50.077 64.6512 50.1799L73.5974 51.2982C74.4624 51.401 74.9787 52.1851 74.7722 53.0463L70.7703 69.7181C70.5766 70.6693 69.6342 71.3248 68.6919 71.2091Z" fill="#060615"/>
<path d="M58.7783 66.0422L70.8357 67.5461L74.1018 53.9722L62.0315 52.4683L58.7783 66.0422Z" fill="#28B45B"/>
<path fill-rule="evenodd" clip-rule="evenodd" d="M63.5557 68.4905L63.4529 68.9127C63.3789 69.253 63.5789 69.5444 63.9064 69.5853C63.9065 69.5853 63.9065 69.5853 63.9066 69.5853L64.3332 69.6368C64.6599 69.6788 65.0136 69.4329 65.102 69.082L65.2048 68.6598C65.2788 68.3195 65.0789 68.0281 64.7513 67.9872C64.7513 67.9872 64.7512 67.9871 64.7511 67.9871L64.3275 67.936C63.9824 67.9047 63.6432 68.143 63.5557 68.4905ZM63.2948 68.426C63.4139 67.9517 63.8739 67.6248 64.3543 67.6696L64.3561 67.6698L64.7845 67.7215C65.2826 67.7835 65.5729 68.2368 65.4671 68.7184L65.4668 68.7199L65.3629 69.1465C65.2446 69.6178 64.7726 69.9629 64.2993 69.9024L63.8738 69.851L63.8733 69.851C63.3752 69.789 63.0848 69.3357 63.1906 68.854L63.1909 68.8526L63.2948 68.426Z" fill="white"/>
<path d="M74.5008 67.456L71.2735 69.397L67.8525 64.4353C67.349 63.7026 67.6588 62.6743 68.5496 62.1345C69.4403 61.5946 70.5764 61.7617 71.0798 62.4944L74.5008 67.456Z" fill="#FFC397"/>
<path d="M72.4744 104H56.2344L59.7457 74.9756H75.9729L72.4744 104Z" fill="#361C80"/>
<path d="M42.4203 50.874H14.2261V57.5839H42.4203V50.874Z" fill="#361C80"/>
<path d="M47.1974 54H19.3776C7.28141 54 -1.85847 65.006 0.323226 76.9583L5.25463 104H72.4611L66.2517 69.945C64.5735 60.7151 56.5567 54 47.1974 54Z" fill="#361C80"/>
</svg>
