<svg width="375" height="418" viewBox="0 0 375 418" fill="none" xmlns="http://www.w3.org/2000/svg">
<mask id="mask0_13631_6974" style="mask-type:alpha" maskUnits="userSpaceOnUse" x="0" y="0" width="375" height="418">
<rect width="375" height="418" fill="#FFF0E4"/>
</mask>
<g mask="url(#mask0_13631_6974)">
<path d="M297.656 287.499L368.301 338.564L344.254 373.009L275.193 321.944L297.656 287.499Z" fill="#CF986F"/>
<path d="M302.055 292.461L281.292 258.545C280.061 256.548 277.246 256.401 275.809 258.222L241.029 302.827L264.049 320.828C269.504 325.086 277.363 324.117 281.615 318.655L302.055 292.461Z" fill="#CF986F"/>
<path d="M221.41 255.108C220.707 250.939 223.756 246.857 228.36 245.858L251.879 240.69C256.572 239.662 260.97 242.335 261.703 246.651C262.437 250.968 259.24 255.314 254.548 256.371L231.88 261.363C226.982 262.42 222.202 259.601 221.41 255.108Z" fill="#F7A468"/>
<path d="M280.941 267.325C278.36 270.672 273.316 271.201 269.445 268.499L249.65 254.727C245.721 251.996 244.665 246.945 247.334 243.451C250.002 239.957 255.369 239.369 259.299 242.1L278.36 255.344C282.524 258.28 283.697 263.742 280.941 267.325Z" fill="#F7A468"/>
<path d="M273.287 278.836C270.97 282.36 265.955 283.241 261.908 280.833L241.205 268.499C237.07 266.033 235.691 261.07 238.096 257.399C240.501 253.729 245.809 252.76 249.944 255.197L269.885 267.061C274.225 269.703 275.779 275.048 273.287 278.836Z" fill="#F7A468"/>
<path d="M277.891 337.272L384.724 420.316C398.272 430.829 417.773 428.391 428.272 414.825C438.77 401.258 436.307 381.73 422.788 371.218L315.926 288.174L277.891 337.272Z" fill="#361C80"/>
<path d="M49.1825 286.265L-28.2659 246.358L-9.64424 208.712L66.2499 248.854L49.1825 286.265Z" fill="#FFCEAA"/>
<path d="M49.0946 286.089L81.3819 308.788C83.4053 310.197 86.2206 309.169 86.8364 306.761L100.971 252.26L72.6722 244.919C65.986 243.186 59.1532 247.209 57.3937 253.905L49.0946 286.089Z" fill="#FFCEAA"/>
<path d="M132.057 276.075C135.107 278.982 135.077 284.092 131.998 287.645L116.192 305.851C113.054 309.493 107.922 309.962 104.755 306.938C101.588 303.913 101.559 298.51 104.696 294.869L119.916 277.338C123.23 273.52 128.773 272.933 132.057 276.075Z" fill="#F7A468"/>
<path d="M77.0128 301.828C77.0715 297.6 80.8251 294.164 85.5465 294.017L109.623 293.224C114.432 293.077 118.244 296.513 118.186 300.888C118.127 305.293 114.168 308.964 109.388 309.111L86.1917 309.874C81.1184 310.021 76.9542 306.35 77.0128 301.828Z" fill="#FFCEAA"/>
<path d="M80.9131 286.382C80.9718 282.154 84.7254 278.718 89.4468 278.571L113.523 277.778C118.332 277.632 122.145 281.067 122.086 285.443C122.027 289.847 118.068 293.518 113.288 293.665L90.092 294.428C85.0187 294.605 80.8251 290.934 80.9131 286.382Z" fill="#F7A468"/>
<path d="M61.3232 234.113L-56.7116 168.012C-71.6676 159.643 -90.5825 164.988 -98.9695 179.964C-107.327 194.94 -101.99 213.88 -87.0341 222.249L31.03 288.35L61.3232 234.113Z" fill="#28B45B"/>
<path d="M169.857 114.921L95.7515 69.1113L73.1709 104.525L146.69 148.866L169.857 114.921Z" fill="#FFCEAA"/>
<path d="M169.681 114.921L205.78 130.895C208.038 131.894 208.596 134.86 206.895 136.622L167.599 176.881L146.69 156.413C141.734 151.568 141.646 143.64 146.484 138.677L169.681 114.921Z" fill="#FFCEAA"/>
<path d="M203.933 191.24C208.009 192.356 212.349 189.713 213.815 185.191L221.235 162.228C222.701 157.647 220.472 153.007 216.249 151.862C212.027 150.717 207.393 153.477 205.898 158.058L198.742 180.17C197.188 184.985 199.534 190.036 203.933 191.24Z" fill="#F7A468"/>
<path d="M197.51 130.749C193.933 132.98 192.906 137.972 195.223 142.113L206.982 163.167C209.328 167.367 214.255 168.894 217.979 166.544C221.704 164.225 222.818 158.939 220.472 154.74L209.152 134.478C206.689 130.044 201.381 128.341 197.51 130.749Z" fill="#FFCEAA"/>
<path d="M186.337 142.054C182.76 144.286 181.733 149.278 184.05 153.418L195.809 174.473C198.156 178.672 203.082 180.199 206.807 177.85C210.531 175.53 211.645 170.245 209.299 166.045L197.98 145.784C195.516 141.349 190.208 139.646 186.337 142.054Z" fill="#F7A468"/>
<path d="M131.528 152.243L-28.3537 61.9464C-43.251 53.4306 -48.4416 34.4609 -39.9373 19.5435C-31.4329 4.62613 -12.4887 -0.542091 2.40865 7.94436L162.291 98.2414L131.528 152.243Z" fill="#28B45B"/>
<path d="M301.791 222.22L171.117 145.137L72.1147 256.783L58.713 258.809L59.8567 274.049L207.1 357.886L317.803 235.229L316.63 219.988L301.791 222.22Z" fill="#CE4D36"/>
<path d="M205.927 342.616L207.1 357.886L59.8567 274.049L58.713 258.809L205.927 342.616Z" fill="#B9472F"/>
<path d="M58.7136 258.809L205.927 342.616L316.631 219.988L169.857 133.42L58.7136 258.809Z" fill="white"/>
<path d="M217.774 341.764L237.217 320.886C238.126 319.917 238.536 318.008 238.097 316.657L237.774 315.659C237.334 314.308 236.249 313.985 235.34 314.984L215.897 335.862C214.988 336.831 214.578 338.74 215.017 340.091L215.34 341.089C215.78 342.44 216.865 342.733 217.774 341.764Z" fill="#9B3D26"/>
<path d="M255.34 299.391L274.783 278.512C275.692 277.543 276.102 275.635 275.663 274.284L275.34 273.285C274.9 271.935 273.815 271.612 272.906 272.61L253.463 293.488C252.554 294.457 252.144 296.366 252.583 297.717L252.906 298.715C253.346 300.066 254.431 300.36 255.34 299.391Z" fill="#9B3D26"/>
<path d="M293.229 258.309L312.671 237.431C313.58 236.462 313.991 234.553 313.551 233.202L313.229 232.204C312.789 230.853 311.704 230.53 310.794 231.528L291.352 252.407C290.443 253.376 290.032 255.285 290.472 256.636L290.795 257.634C291.234 258.985 292.319 259.278 293.229 258.309Z" fill="#9B3D26"/>
<path d="M189.24 126.079L174.255 130.22L179.798 155.738C180.619 159.496 184.636 161.64 188.771 160.495C192.906 159.35 195.604 155.356 194.783 151.597L189.24 126.079Z" fill="#FFCEAA"/>
<path d="M104.754 285.032L205.926 342.616L316.63 219.959L272.964 194.294C260.061 211.149 219.651 263.213 185.457 276.369C148.801 290.523 112.144 286.118 104.754 285.032Z" fill="#E8553D"/>
<path d="M70.5606 294.252L64.5195 279.922L87.9506 268.44C91.411 266.737 95.5752 268.587 97.2467 272.522C98.9183 276.486 97.452 281.067 94.0209 282.77L70.5606 294.252Z" fill="#FFCEAA"/>
<path d="M277.686 283.769L271.762 298.158L247.188 289.583C243.551 288.321 241.939 284.063 243.581 280.098C245.223 276.134 249.475 273.932 253.112 275.195L277.686 283.769Z" fill="#CF986F"/>
<path d="M207.099 357.886L205.926 342.646V342.616L104.754 285.032V299.626L207.099 357.886Z" fill="#B9472F"/>
<path d="M196.513 320.71C205.81 320.71 213.346 314.544 213.346 306.938C213.346 299.332 205.81 293.166 196.513 293.166C187.217 293.166 179.681 299.332 179.681 306.938C179.681 314.544 187.217 320.71 196.513 320.71Z" fill="#FEC02A"/>
<path d="M303.346 223.365L269.739 260.16C269.094 260.864 267.979 260.923 267.275 260.277C266.572 259.631 266.513 258.515 267.158 257.81L300.765 221.016C301.41 220.311 302.525 220.253 303.228 220.899C303.962 221.545 303.991 222.631 303.346 223.365Z" fill="#FEC02A"/>
<path d="M284.519 231.881L263.962 254.198C263.317 254.903 262.202 254.962 261.499 254.316C260.795 253.67 260.736 252.554 261.381 251.849L281.938 229.532C282.584 228.827 283.698 228.768 284.402 229.414C285.105 230.06 285.164 231.176 284.519 231.881Z" fill="white"/>
<path d="M190.472 344.437L165.546 330.606C164.373 329.96 163.405 328.286 163.405 326.847V325.79C163.405 324.351 164.343 323.734 165.516 324.38L190.443 338.211C191.616 338.857 192.584 340.531 192.584 341.97V343.027C192.584 344.466 191.645 345.083 190.472 344.437Z" fill="#9B3D26"/>
<path d="M141.645 315.776L116.719 301.946C115.546 301.299 114.578 299.626 114.578 298.187V297.13C114.578 295.691 115.517 295.074 116.69 295.72L141.616 309.551C142.789 310.197 143.757 311.871 143.757 313.31V314.367C143.757 315.776 142.818 316.422 141.645 315.776Z" fill="#9B3D26"/>
<path d="M366.46 33.4673C366.46 33.4673 350.119 47.7331 313.918 75.2961C277.716 102.859 268.563 115.07 298.105 130.363C327.677 145.657 378.136 120.677 378.136 120.677L378.136 33.4673L366.46 33.4673Z" fill="white"/>
<path d="M378.165 120.677L378.165 87.3311C368.191 89.4739 351.85 92.38 348.095 100.746C344.721 108.26 351.704 122.526 355.576 129.424C368.69 125.344 378.165 120.677 378.165 120.677Z" fill="#FCAA6F"/>
<path d="M327.031 65.2864C327.031 65.2864 336.859 87.3896 347.039 86.3622C354.109 85.6284 368.66 76.7343 378.165 67.9576L378.165 33.4672L366.489 33.4672C366.489 33.4672 354.109 44.2693 327.09 65.1984L327.031 65.2864Z" fill="#FCAA6F"/>
<path d="M360.182 104.943C360.182 103.111 358.697 101.626 356.867 101.626C355.036 101.626 353.552 103.111 353.552 104.943C353.552 106.775 355.036 108.26 356.867 108.26C358.697 108.26 360.182 106.775 360.182 104.943Z" fill="#060615"/>
<path d="M349.298 74.0634C349.298 72.2315 347.814 70.7464 345.983 70.7464C344.152 70.7464 342.668 72.2315 342.668 74.0634C342.668 75.8953 344.152 77.3804 345.983 77.3804C347.814 77.3804 349.298 75.8953 349.298 74.0634Z" fill="#060615"/>
<path d="M306.672 110.139C305.029 102.536 296.14 99.2486 286.605 99.2486C286.547 99.2486 286.517 99.2486 286.459 99.2486C277.306 110.197 278.362 118.211 291.827 126.782C292.091 126.782 292.326 126.812 292.59 126.812C302.125 126.782 308.344 117.741 306.672 110.139Z" fill="#060615"/>
<path d="M348.095 56.3921C348.095 56.3921 362.353 35.9914 362.353 22.2245C362.353 8.45773 378.165 12.5379 378.165 12.5379L378.165 33.4376" fill="#FCAA6F"/>
<path d="M185.458 304.03C186.719 302.503 188.274 301.681 190.15 301.623C191.705 301.564 193.142 302.034 194.373 303.238C194.637 303.502 194.872 303.796 195.106 304.089C195.664 304.823 196.309 305.293 197.159 305.323C198.068 305.352 198.889 304.677 199.153 303.737C199.417 302.797 199.095 301.681 198.391 301.006C198.039 300.683 197.658 300.477 197.189 300.389C197.189 300.36 197.189 300.36 197.189 300.33C197.394 300.301 197.57 300.242 197.775 300.213C199.359 300.096 200.766 300.683 202.027 301.799C202.907 302.592 203.67 303.502 204.168 304.618C204.931 306.292 205.136 308.024 204.784 309.786C204.784 309.845 204.755 309.903 204.725 309.962C203.376 309.639 202.115 309.903 200.913 310.403C199.623 310.931 198.332 310.784 197.013 310.226C196.602 310.05 196.221 309.845 195.781 309.639C196.485 310.961 197.365 312.018 198.567 312.723C199.769 313.457 201.06 313.692 202.409 313.603C202.115 313.926 201.793 314.132 201.441 314.279C199.828 315.042 198.156 315.101 196.397 314.455C194.96 313.926 193.787 312.957 193.024 311.489C192.584 310.638 192.174 309.786 191.763 308.905C191.148 307.554 190.414 306.321 189.329 305.323C188.215 304.295 186.954 303.825 185.576 304.03C185.576 304.03 185.546 304.03 185.458 304.03Z" fill="#E8553D"/>
<path d="M113.346 220.546L79.5045 258.897C78.6247 259.895 77.1291 259.983 76.1321 259.102L75.4576 258.515C74.4605 257.634 74.3725 256.136 75.2523 255.138L109.094 216.787C109.974 215.789 111.469 215.701 112.466 216.582L113.141 217.169C114.138 218.05 114.226 219.548 113.346 220.546Z" fill="#FEC02A"/>
<path d="M164.775 94.5444L147.518 84.9556L113.824 145.758L131.081 155.347L164.775 94.5444Z" fill="#25A855"/>
<path d="M64.8309 228.589L47.5737 219L13.8802 279.802L31.1374 289.391L64.8309 228.589Z" fill="#25A855"/>
<path d="M187.001 7.44282L191.119 3.37337C195.667 -1.12181 203.041 -1.12181 207.589 3.37338C212.137 7.86856 212.137 15.1567 207.589 19.6519L187.001 40L166.411 19.6499C161.863 15.1547 161.863 7.86657 166.411 3.37139C170.959 -1.12379 178.333 -1.1238 182.882 3.37139L187.001 7.44282Z" fill="#E8553D"/>
</g>
</svg>
