<svg width="95" height="34" viewBox="0 0 95 34" fill="none" xmlns="http://www.w3.org/2000/svg">
<path d="M49.969 15.2281L46.4548 6.5242L68.4589 0L69.0075 5.90144L49.969 15.2281Z" fill="#28B45B"/>
<path d="M48.7976 18.772L45.2834 27.4758L67.2875 34L67.8362 28.0986L48.7976 18.772Z" fill="#28B45B"/>
<path d="M73.2778 19.1129V14.7832H93.4878C94.3181 14.7832 95.0002 15.4653 95.0002 16.2956V17.5856C95.0002 18.416 94.3181 19.0981 93.4878 19.0981H73.2778V19.1129Z" fill="#060606"/>
<path fill-rule="evenodd" clip-rule="evenodd" d="M82.0885 6.17288C82.217 6.52678 82.0343 6.91783 81.6804 7.04633L74.8195 9.53745V24.7294L81.6804 27.2205C82.0343 27.349 82.217 27.74 82.0885 28.0939C81.96 28.4478 81.569 28.6306 81.2151 28.5021L73.9051 25.8479C73.6355 25.75 73.4561 25.4939 73.4561 25.2071V9.0597C73.4561 8.77291 73.6355 8.51679 73.9051 8.41891L81.2151 5.76475C81.569 5.63625 81.96 5.81898 82.0885 6.17288Z" fill="#060606"/>
<path d="M24.1985 17.0372C24.1985 10.2016 30.3816 4.67082 38.0178 4.64117H38.0771C41.695 4.62634 44.6457 7.56223 44.6457 11.195V22.8793C44.6457 26.4824 41.7247 29.4183 38.1216 29.4331C30.4409 29.4628 24.1985 23.9024 24.1985 17.0372Z" fill="#060606"/>
<path d="M76.8958 4.0482L79.1644 5.26407L81.6554 3.87026C82.0113 3.66267 82.4709 3.76647 82.6933 4.12233L83.9833 6.25753C84.2057 6.61339 84.1909 7.05822 83.9833 7.41409L83.2419 8.60031C82.9454 9.0748 82.3226 9.22307 81.8482 8.91169L81.6406 8.77824L79.2237 8.89686L78.8678 7.87375L76.9106 7.13236V4.0482H76.8958Z" fill="#FFC397"/>
<path d="M29.7588 24.0208C26.9712 19.2018 26.5116 15.7914 29.655 9.45995C30.0554 8.64442 30.8412 8.06614 31.7457 7.96235L59.1767 4.98197C60.4518 4.83369 61.5639 5.82715 61.5639 7.10234V27.4905C61.5639 28.7805 60.437 29.7739 59.147 29.6108L31.7012 25.4442C30.8709 25.3108 30.174 24.7622 29.7588 24.0208Z" fill="#28B45B"/>
<path d="M66.813 23.0866C70.9795 22.79 74.4047 20.4473 74.4047 17.3038C74.4047 14.1603 71.1426 11.4023 66.6054 11.4023C63.8771 11.4023 61.8013 14.9907 61.8013 17.3334C61.8013 19.6762 64.0995 23.2794 66.813 23.0866Z" fill="#28B45B"/>
<path d="M61.4009 24.4953C57.3974 24.4953 53.3792 21.248 53.3792 17.2594C53.3792 13.2707 57.3974 10.0234 61.4009 10.0234C65.4043 10.0234 68.6367 13.2707 68.6367 17.2594C68.6367 21.248 65.4043 24.4953 61.4009 24.4953Z" fill="#060606"/>
<path d="M62.6464 24.881C66.8638 24.881 70.2826 21.4621 70.2826 17.2447C70.2826 13.0273 66.8638 9.6084 62.6464 9.6084C58.4291 9.6084 55.0103 13.0273 55.0103 17.2447C55.0103 21.4621 58.4291 24.881 62.6464 24.881Z" fill="#28B45B"/>
<path d="M69.0074 5.90144L68.4587 0L78.0967 3.55866V8.89664L69.0074 5.90144Z" fill="#28B45B"/>
<path d="M80.8544 7.39912L80.4541 6.16842L84.4575 4.89324C84.7986 4.78944 85.1544 4.96738 85.2731 5.30841C85.3769 5.64945 85.1989 6.00532 84.8579 6.12394L80.8544 7.39912Z" fill="#060606"/>
<path d="M79.164 8.77777L78.4375 6.52395L81.2399 5.91602L80.9434 6.00498C80.8247 6.04947 80.7654 6.16809 80.7951 6.28671L81.0471 7.08741C81.0916 7.20603 81.2103 7.28017 81.3289 7.23568L81.6551 7.13189L81.5958 8.08086L81.8478 8.12535C82.0554 8.12535 82.2334 8.30328 82.2334 8.51087V9.10398C82.2334 9.29674 82.0851 9.44501 81.8923 9.44501L79.4309 8.97053C79.3123 9.00018 79.1937 8.91122 79.164 8.77777Z" fill="#FFC397"/>
<path d="M75.7241 29.9521L77.9927 28.7362L80.4838 30.13C80.8396 30.3376 81.2993 30.2338 81.5217 29.878L82.8117 27.7428C83.0341 27.3869 83.0193 26.9421 82.8117 26.5862L82.0703 25.4C81.7738 24.9255 81.151 24.7772 80.6765 25.0886L80.4689 25.2221L78.052 25.1034L77.6962 26.1266L75.739 26.8679V29.9521H75.7241Z" fill="#FFC397"/>
<path d="M67.8362 28.0987L67.2876 34.0002L76.9255 30.4415V25.1035L67.8362 28.0987Z" fill="#28B45B"/>
<path d="M79.6831 26.6011L79.2827 27.8318L83.2862 29.107C83.6272 29.2108 83.9831 29.0328 84.1017 28.6918C84.2055 28.3507 84.0275 27.9949 83.6865 27.8763L79.6831 26.6011Z" fill="#060606"/>
<path d="M77.9929 25.2219L77.2664 27.4757L80.0688 28.0837L79.7722 27.9947C79.6536 27.9502 79.5943 27.8316 79.6239 27.713L79.876 26.9123C79.9205 26.7937 80.0391 26.7195 80.1577 26.764L80.4839 26.8678L80.4246 25.9188L80.6767 25.8744C80.8843 25.8744 81.0622 25.6964 81.0622 25.4888V24.8957C81.0622 24.703 80.9139 24.5547 80.7212 24.5547L78.2598 25.0292C78.1412 24.9995 78.0226 25.0885 77.9929 25.2219Z" fill="#FFC397"/>
<path d="M0 17.6449V16.2511C0 15.4059 0.682068 14.709 1.54207 14.709H24.7324C25.5775 14.709 26.2744 15.3911 26.2744 16.2511V17.63C26.2744 18.4752 25.5924 19.1721 24.7324 19.1721H1.52724C0.682067 19.1721 0 18.4901 0 17.6449Z" fill="#060606"/>
<path opacity="0.6" d="M47.0182 24.3173C49.2129 24.3173 50.992 21.0644 50.992 17.0517C50.992 13.039 49.2129 9.78613 47.0182 9.78613C44.8236 9.78613 43.0444 13.039 43.0444 17.0517C43.0444 21.0644 44.8236 24.3173 47.0182 24.3173Z" fill="#239C4F"/>
<path d="M75.9912 2.77295V8.1999L78.0967 8.8968V3.55882L75.9912 2.77295Z" fill="#28B45B"/>
<path d="M74.7014 25.8447V31.2717L76.8959 30.4561V25.1182L74.7014 25.8447Z" fill="#28B45B"/>
</svg>
