<svg width="375" height="297" viewBox="0 0 375 297" fill="none" xmlns="http://www.w3.org/2000/svg">
<path fill-rule="evenodd" clip-rule="evenodd" d="M114.062 146.213L226.03 153.974L223.715 187.374L111.746 179.612L114.062 146.213Z" fill="#361C80"/>
<path fill-rule="evenodd" clip-rule="evenodd" d="M155.095 162.514C160.529 155.035 170.998 153.377 178.477 158.811L241.103 204.311C248.583 209.745 250.241 220.214 244.807 227.693C239.373 235.173 228.904 236.831 221.425 231.397L158.798 185.897C151.319 180.462 149.661 169.994 155.095 162.514Z" fill="#28B45B"/>
<path d="M107.69 155.94H167.364C172.708 155.94 177.492 159.375 179.07 164.465C186.144 187.622 190.063 219.101 187.544 296.664H99.9535C99.9535 296.664 100.284 226.251 95.4493 169.249C94.8386 162.073 100.488 155.94 107.69 155.94Z" fill="#28B45B"/>
<path d="M167.108 95.4769C169.144 92.1178 168.61 90.0057 168.279 88.5552C168.101 87.7408 167.134 87.3846 166.472 87.8935L164.258 89.573C156.37 76.7475 140.389 70.6401 125.578 75.7805C111.887 80.5392 103.363 93.4411 103.515 107.157C103.515 107.157 103.083 119.296 117.359 132.121C122.245 136.498 121.15 142.86 121.15 148.458V157.798C121.15 166.831 128.479 174.186 137.513 174.211C146.649 174.237 154.079 166.781 153.977 157.645C153.85 148.102 154.588 137.44 158.202 134.513C160.848 132.376 161.739 131.79 162.681 131.103C171.613 124.36 174.997 116.115 167.108 95.4769Z" fill="#FFC397"/>
<path d="M103.642 104.078C104.685 91.5325 112.93 80.1575 125.578 75.7805C132.349 73.4173 139.364 73.4281 145.771 75.3779L145.783 75.3734C151.203 77.002 156.191 80.0557 160.135 84.2291C154.587 86.8091 143.201 90.5158 132.593 84.266C131.463 83.6006 130.031 83.4993 128.882 84.1306C127.279 85.0115 126.724 86.9855 127.533 88.6264L138.584 111.051L132.654 115.199L128.252 107.284C126.903 104.918 123.85 104.18 121.585 105.707C119.625 107.03 118.989 109.626 120.083 111.712L124.053 119.245C126.751 124.334 126.649 132.503 123.468 137.287L121.203 140.799C120.974 137.592 120.109 134.564 117.386 132.121C103.11 119.296 103.542 107.157 103.542 107.157C103.525 106.118 103.567 105.091 103.651 104.067L103.649 104.07C103.645 104.074 103.642 104.078 103.642 104.078Z" fill="#060615"/>
<path d="M151.23 93.8226C152.172 93.8226 152.935 93.0592 152.935 92.1176C152.935 91.1759 152.172 90.4126 151.23 90.4126C150.289 90.4126 149.526 91.1759 149.526 92.1176C149.526 93.0592 150.289 93.8226 151.23 93.8226Z" fill="#333333"/>
<path d="M151.688 95.2989C153.079 95.2989 154.207 94.1709 154.207 92.7795C154.207 91.3882 153.079 90.2603 151.688 90.2603C150.297 90.2603 149.169 91.3882 149.169 92.7795C149.169 94.1709 150.297 95.2989 151.688 95.2989Z" fill="#060615"/>
<path d="M210.472 96.0367C210.548 95.8586 210.599 95.6804 210.676 95.4769C208.64 92.1178 209.174 90.0057 209.505 88.5552C209.683 87.7408 210.65 87.3846 211.312 87.8935L213.526 89.5731C221.414 76.7475 237.395 70.6401 252.206 75.7805C265.897 80.5392 274.421 93.4411 274.269 107.157C274.269 107.157 274.701 119.296 260.425 132.121C255.539 136.498 256.634 142.86 256.634 148.458V158.714L222.865 165.992C222.865 165.992 226.529 140.112 219.608 134.513C216.961 132.376 216.07 131.79 215.129 131.103C206.273 124.411 202.863 116.267 210.472 96.0367Z" fill="#93694B"/>
<path d="M275.184 155.94H210.725C205.381 155.94 200.597 159.375 199.019 164.465C191.945 187.622 188.026 228.363 196.169 296.664H283.658C283.658 296.664 280.553 236.125 287.398 169.249C288.162 162.098 282.385 155.94 275.184 155.94Z" fill="#361C80"/>
<path d="M226.555 93.8226C227.496 93.8226 228.26 93.0592 228.26 92.1176C228.26 91.1759 227.496 90.4126 226.555 90.4126C225.613 90.4126 224.85 91.1759 224.85 92.1176C224.85 93.0592 225.613 93.8226 226.555 93.8226Z" fill="#333333"/>
<path d="M259.075 144.794H212.735V167.06H259.075V144.794Z" fill="#361C80"/>
<path d="M273.86 101.559C272.002 90.0312 264.037 79.8777 252.229 75.7806C239.353 71.3273 225.586 75.348 217.035 84.8908C231.362 90.1075 253.018 82.9568 253.018 82.9568L250.982 87.2574L239.251 111.051L245.18 115.199L249.074 108.201C250.422 105.783 252.738 103.264 256.25 105.707C258.209 107.03 258.846 109.626 257.751 111.712L251.44 124.08C250.728 125.378 249.201 128.508 249.099 129.347C248.514 133.521 251.135 137.516 255.156 138.814L256.835 139.374C257.217 136.702 258.184 134.183 260.5 132.096C270.933 122.731 273.503 113.723 274.139 109.549C274.089 109.549 274.725 106.674 273.86 101.559Z" fill="#060615"/>
<path d="M245.157 115.199C247.524 111.152 249.356 107.641 249.356 107.641L244.801 99.7266C244.801 99.7266 237.828 113.417 222.28 106.292C216.605 103.696 211.694 102.449 208.309 102.424C203.703 118.074 207.266 125.149 215.155 131.078C215.664 131.46 216.147 131.816 216.91 132.376C228.947 130.798 240.755 122.782 245.157 115.199Z" fill="#060615"/>
<path d="M242.534 85.5268C242.534 85.5268 250.525 88.7586 246.657 95.9857L255.843 89.8783L256.429 81.4043L243.069 82.9057" fill="#060615"/>
<path d="M226.835 95.2222C228.226 95.2222 229.354 94.0943 229.354 92.7029C229.354 91.3115 228.226 90.1836 226.835 90.1836C225.443 90.1836 224.315 91.3115 224.315 92.7029C224.315 94.0943 225.443 95.2222 226.835 95.2222Z" fill="#060615"/>
<path d="M101.376 83.3637L87.8121 69.902L123.489 32.647L136.213 48.1699L101.376 83.3637Z" fill="#FFC397"/>
<path d="M142.652 2.87385L131.124 6.38559C129.827 6.71641 128.707 7.93789 128.223 9.56653L120.258 39.6709C118.579 45.1421 121.378 50.6133 125.755 50.4097L136.214 48.1958C161.381 40.1798 149.09 38.5766 149.09 38.5766L150.363 30.637C152.068 20.8906 150.185 0.888945 142.652 2.87385Z" fill="#FFC397"/>
<path d="M147.843 45.2945L131.328 38.2455C129.546 37.4821 128.707 35.4209 129.47 33.6395L142.983 1.95747C143.67 0.32883 145.578 -0.434593 147.207 0.252488L164.257 7.53046C165.885 8.21754 166.649 10.1261 165.962 11.7547L152.449 43.4368C151.686 45.2181 149.624 46.0324 147.843 45.2945Z" fill="#060615"/>
<path d="M131.249 29.5219L154.209 39.3228L165.208 13.5549L142.249 3.75409L131.249 29.5219Z" fill="#3E3E40"/>
<path d="M156.572 38.0422C154.613 38.0931 152.959 36.5662 152.882 34.5813L152.857 33.8942C152.806 31.9093 154.333 30.2807 156.318 30.2044C158.277 30.1535 159.931 31.6803 160.008 33.6652L160.033 34.3523C160.084 36.3372 158.532 37.9913 156.572 38.0422Z" fill="#FFC397"/>
<path d="M134.178 32.3163L128.351 36.2098C126.697 37.304 124.457 36.8714 123.338 35.2428C122.218 33.6141 122.65 31.3748 124.305 30.2805L130.132 26.3871C131.786 25.2928 134.025 25.7254 135.145 27.3541C136.29 28.9827 135.832 31.1966 134.178 32.3163Z" fill="#FFC397"/>
<path d="M134.966 27.0484L139.521 32.3669C140.819 33.8683 140.616 36.1332 139.089 37.4055C137.562 38.6779 135.272 38.4998 133.999 36.9729L129.444 31.6544C128.146 30.153 128.35 27.8882 129.877 26.6158C131.378 25.3435 133.668 25.547 134.966 27.0484Z" fill="#FFC397"/>
<path d="M136.619 23.8168L130.792 27.7103C129.138 28.8045 126.898 28.3719 125.779 26.7433C124.659 25.1146 125.092 22.8752 126.746 21.781L132.573 17.8875C134.227 16.7933 136.467 17.2259 137.586 18.8545C138.706 20.4832 138.273 22.7226 136.619 23.8168Z" fill="#FFC397"/>
<path d="M137.104 18.2695L144.305 24.7077C145.781 26.031 145.909 28.2958 144.56 29.7717C143.211 31.2477 140.921 31.3495 139.445 30.0262L132.243 23.588C130.767 22.2647 130.64 19.9999 131.989 18.524C133.312 17.048 135.602 16.9462 137.104 18.2695Z" fill="#FFC397"/>
<path d="M137.868 16.8442L132.041 20.7377C130.387 21.8319 128.147 21.3993 127.027 19.7707C125.908 18.142 126.34 15.9026 127.995 14.8084L133.822 10.8895C135.476 9.79525 137.715 10.2279 138.835 11.8565C139.955 13.5106 139.522 15.7245 137.868 16.8442Z" fill="#FFC397"/>
<path d="M138.353 11.2967L145.554 17.7349C147.03 19.0582 147.158 21.323 145.809 22.799C144.46 24.2749 142.17 24.3767 140.694 23.0534L133.492 16.6152C132.016 15.292 131.889 13.0271 133.238 11.5512C134.561 10.0752 136.851 9.94799 138.353 11.2967Z" fill="#FFC397"/>
<path d="M131.329 6.18153L142.144 2.82247C144.358 2.13539 146.648 3.10239 147.234 5.01095C147.819 6.89406 146.496 8.98075 144.282 9.69328L133.467 13.0523C131.253 13.7394 128.962 12.7724 128.377 10.8639C127.792 8.9553 129.115 6.86861 131.329 6.18153Z" fill="#FFC397"/>
<path d="M148.989 14.9612L141.991 8.26848C140.54 6.89432 140.515 4.62949 141.914 3.20444C143.314 1.77938 145.604 1.75393 147.055 3.12809L154.027 9.82077C155.478 11.1949 155.503 13.4598 154.104 14.8848C152.729 16.2844 150.414 16.3353 148.989 14.9612Z" fill="#FFC397"/>
<path d="M225.56 40.2303L236.401 40.4339C238.106 40.4593 239.455 42.1134 239.429 44.1237C239.404 46.1341 238.004 47.7118 236.299 47.6864L225.458 47.4828C223.753 47.4574 222.405 45.8033 222.43 43.7929C222.456 41.7826 223.855 40.2048 225.56 40.2303Z" fill="#93694B"/>
<path d="M293.579 72.4721L279.15 84.9668L250.165 50.6128L263.551 37.7109L293.579 72.4721Z" fill="#93694B"/>
<path d="M252.1 52.9032L235.686 47.5847L234.974 36.6168C234.21 35.1409 234.618 33.3341 235.941 32.3671C240.674 28.9063 246.858 22.6716 253.703 18.88C256.451 17.3531 260.014 18.6764 260.981 22.0863L265.638 40.1286L252.1 52.9032Z" fill="#93694B"/>
<path d="M257.955 38.0163L249.481 17.5566C248.539 15.3935 246.656 13.7904 244.366 13.1796C232.278 9.54064 219.122 12.0599 209.427 20.1268C201.283 26.9212 194.438 35.8279 190.112 44.4291C186.218 54.2009 189.705 53.5393 192.606 51.8852C194.031 51.0709 195.481 50.3074 197.008 49.6713L203.65 46.872C212.378 43.7675 225.102 43.3348 234.238 44.7854L251.517 48.5007C257.42 49.4677 260.271 43.8184 257.955 38.0163Z" fill="#FFAF4E"/>
<path d="M249.506 17.5565C248.565 15.3934 246.681 13.7903 244.391 13.1795C242.966 12.7469 241.49 12.4161 240.04 12.1616C241.974 17.811 247.547 34.4281 247.547 40.0775C247.547 46.9228 245.562 43.6147 233.627 42.724C221.692 41.8333 208.892 42.724 200.494 46.0322C195.049 48.1952 191.359 51.0708 189.45 52.8521C190.29 53.0557 191.486 52.5722 192.606 51.936C194.031 51.1217 195.481 50.3582 197.008 49.7221L203.65 46.9228C212.378 43.8182 225.102 43.3856 234.238 44.8361L251.517 48.5515C257.395 49.493 260.27 43.8182 257.955 38.0417L249.506 17.5565Z" fill="#E78F25"/>
<path d="M203.828 60.1557C202.963 60.1557 202.276 59.4686 202.276 58.6034V42.2661H205.38V58.6034C205.355 59.4686 204.668 60.1557 203.828 60.1557Z" fill="#F5A94C"/>
<path d="M218.179 51.1218C217.314 51.1218 216.627 50.4347 216.627 49.5695V43.3857H219.732V49.5695C219.732 50.4092 219.019 51.1218 218.179 51.1218Z" fill="#EE7D44"/>
<path d="M220.293 35.0643C222.71 37.3037 227.647 37.9399 231.337 36.4894C235.027 35.0389 236.07 32.0106 233.653 29.7713C231.235 27.5319 226.298 26.8957 222.609 28.3462C218.893 29.7967 217.875 32.825 220.293 35.0643Z" fill="#E8553D"/>
<path d="M224.72 21.5009C227.036 23.9693 231.871 24.9109 235.485 23.664C239.098 22.4171 240.141 19.3634 237.8 16.9204C235.459 14.4775 230.65 13.5104 227.036 14.7574C223.448 16.0297 222.405 19.058 224.72 21.5009Z" fill="#E8553D"/>
<path d="M208.739 28.8043C211.487 29.4659 215.66 28.0917 218.078 25.776C220.47 23.4603 220.19 21.0428 217.442 20.3812C214.693 19.7195 210.52 21.0937 208.103 23.4094C205.685 25.7251 205.99 28.1426 208.739 28.8043Z" fill="#E8553D"/>
<path d="M198.611 41.7316C201.079 41.8843 204.515 40.1284 206.271 37.7873C208.027 35.4715 207.441 33.4612 204.973 33.334C202.504 33.1813 199.069 34.9371 197.313 37.2783C195.557 39.594 196.143 41.5789 198.611 41.7316Z" fill="#E8553D"/>
<path d="M244.67 22.0861L254.849 18.3453C256.452 17.76 258.31 18.8033 258.997 20.6864C259.684 22.5696 258.972 24.5545 257.368 25.1397L247.189 28.8805C245.586 29.4658 243.729 28.4225 243.041 26.5394C242.354 24.6562 243.067 22.6713 244.67 22.0861Z" fill="#93694B"/>
<path d="M150.059 225.691H136.673L134.688 216.861C132.525 210.805 133.569 206.631 134.739 203.196L151.891 199.277L154.359 220.882C154.665 223.426 152.654 225.691 150.059 225.691Z" fill="#93694B"/>
<path d="M139.879 178.868L151.89 199.252L135.858 204.57L123.44 189.123" fill="#93694B"/>
<path d="M139.092 224.776L132.577 227.422C130.72 228.186 128.607 227.295 127.869 225.437C127.106 223.58 127.997 221.467 129.854 220.729L136.369 218.083C138.227 217.32 140.339 218.21 141.077 220.068C141.84 221.9 140.949 224.012 139.092 224.776Z" fill="#93694B"/>
<path d="M154.054 223.045L151.026 229.407C150.161 231.214 147.998 231.977 146.191 231.112C144.384 230.247 143.621 228.084 144.46 226.277L147.489 219.915C148.354 218.108 150.517 217.345 152.324 218.21C154.13 219.075 154.919 221.238 154.054 223.045Z" fill="#93694B"/>
<path d="M145.352 226.15L138.838 228.796C136.98 229.56 134.868 228.669 134.13 226.811C133.366 224.954 134.257 222.841 136.115 222.104L142.629 219.457C144.487 218.694 146.599 219.584 147.337 221.442C148.075 223.3 147.184 225.412 145.352 226.15Z" fill="#93694B"/>
<path d="M131.126 216.072L134.333 222.358C135.249 224.139 134.536 226.328 132.755 227.244C130.974 228.16 128.811 227.447 127.894 225.666L124.688 219.381C123.772 217.599 124.484 215.411 126.266 214.495C128.047 213.579 130.21 214.291 131.126 216.072Z" fill="#93694B"/>
<path fill-rule="evenodd" clip-rule="evenodd" d="M279.283 40.2412L325.215 96.3783C329.185 101.23 330.111 107.893 327.616 113.644L279.494 224.518L248.783 211.189L292.84 109.679L253.371 61.4424L279.283 40.2412Z" fill="#361C80"/>
<path fill-rule="evenodd" clip-rule="evenodd" d="M84.0633 101.067L130.59 59.8913L108.402 34.8198L52.6466 84.1624C47.1576 89.0201 45.4673 96.8839 48.4754 103.568L97.6398 212.814L128.17 199.074L84.0633 101.067Z" fill="#28B45B"/>
<path d="M100.845 168.129L125.147 207.115L153.47 189.48L129.142 150.494C124.257 142.682 113.976 140.29 106.163 145.15C98.351 150.036 95.9844 160.317 100.845 168.129Z" fill="#361C80"/>
<path d="M266.53 151.767L265.792 162.735C265.664 164.719 263.909 166.246 261.924 166.094C259.939 165.966 258.437 164.236 258.565 162.251L259.303 151.283C259.43 149.298 261.186 147.771 263.171 147.924C265.156 148.051 266.657 149.782 266.53 151.767Z" fill="#FFC397"/>
<path d="M273.455 148.764L272.717 159.732C272.589 161.716 270.833 163.243 268.849 163.091C266.864 162.963 265.362 161.233 265.489 159.248L266.227 148.28C266.355 146.295 268.111 144.768 270.095 144.921C272.08 145.048 273.607 146.779 273.455 148.764Z" fill="#FFC397"/>
<rect x="182.744" y="86.0762" width="7" height="9" rx="3.5" transform="rotate(19.9421 182.744 86.0762)" fill="#F1AC7A"/>
</svg>
